<?xml version="1.0" encoding="UTF-8"?>
<!DOCTYPE svg PUBLIC "-//W3C//DTD SVG 1.1//EN" "http://www.w3.org/Graphics/SVG/1.1/DTD/svg11.dtd">
<svg xmlns="http://www.w3.org/2000/svg" version="1.1" width="496px" height="503px" style="shape-rendering:geometricPrecision; text-rendering:geometricPrecision; image-rendering:optimizeQuality; fill-rule:evenodd; clip-rule:evenodd" xmlns:xlink="http://www.w3.org/1999/xlink">
<g><path style="opacity:0.322" fill="#fabcac" d="M 239.5,3.5 C 264.215,1.50435 288.549,3.83769 312.5,10.5C 301.172,8.73512 289.839,6.90179 278.5,5C 265.526,3.83432 252.526,3.33432 239.5,3.5 Z"/></g>
<g><path style="opacity:0.871" fill="#f89f88" d="M 236.5,3.5 C 226.371,5.34975 216.038,6.68308 205.5,7.5C 215.543,4.95234 225.877,3.619 236.5,3.5 Z"/></g>
<g><path style="opacity:0.812" fill="#f58a6e" d="M 200.5,8.5 C 200.389,9.11742 200.056,9.61742 199.5,10C 195.83,10.5482 192.163,11.0482 188.5,11.5C 192.2,9.75466 196.2,8.75466 200.5,8.5 Z"/></g>
<g><path style="opacity:0.878" fill="#f89176" d="M 313.5,10.5 C 315.786,10.595 317.786,11.2616 319.5,12.5C 316.99,12.9465 314.99,12.2798 313.5,10.5 Z"/></g>
<g><path style="opacity:1" fill="#f47b5b" d="M 188.5,11.5 C 184.498,13.6098 180.165,14.9431 175.5,15.5C 179.502,13.3902 183.835,12.0569 188.5,11.5 Z"/></g>
<g><path style="opacity:1" fill="#f78767" d="M 343.5,20.5 C 345.553,20.4021 347.22,21.0687 348.5,22.5C 346.219,22.9227 344.552,22.256 343.5,20.5 Z"/></g>
<g><path style="opacity:1" fill="#f78768" d="M 151.5,24.5 C 149.824,26.8337 147.491,27.8337 144.5,27.5C 146.509,25.9348 148.843,24.9348 151.5,24.5 Z"/></g>
<g><path style="opacity:0.094" fill="#fad1c7" d="M 312.5,25.5 C 312.918,26.2216 313.584,26.7216 314.5,27C 313.906,27.4643 313.239,27.631 312.5,27.5C 311.167,26.8333 311.167,26.1667 312.5,25.5 Z"/></g>
<g><path style="opacity:1" fill="#eb451c" d="M 236.5,3.5 C 237.5,3.5 238.5,3.5 239.5,3.5C 252.526,3.33432 265.526,3.83432 278.5,5C 289.839,6.90179 301.172,8.73512 312.5,10.5C 312.833,10.5 313.167,10.5 313.5,10.5C 314.99,12.2798 316.99,12.9465 319.5,12.5C 326.174,13.726 332.507,15.726 338.5,18.5C 338.792,20.9572 338.792,23.6239 338.5,26.5C 336.194,26.0074 333.861,25.6741 331.5,25.5C 331.167,25.5 330.833,25.5 330.5,25.5C 328.383,23.3455 325.716,22.3455 322.5,22.5C 322.5,21.5 322.5,20.5 322.5,19.5C 319.797,19.0445 317.13,18.3779 314.5,17.5C 312.547,18.1556 310.547,18.4889 308.5,18.5C 294.968,15.6001 281.301,13.6001 267.5,12.5C 261.009,11.8337 254.342,11.5004 247.5,11.5C 238.277,11.2812 229.277,11.9479 220.5,13.5C 214.426,14.4484 208.426,15.7817 202.5,17.5C 201.167,17.5 199.833,17.5 198.5,17.5C 197.209,17.2627 196.209,17.596 195.5,18.5C 191.981,19.9636 188.314,20.9636 184.5,21.5C 183.508,21.3284 182.842,21.6618 182.5,22.5C 182.167,22.5 181.833,22.5 181.5,22.5C 180.508,22.3284 179.842,22.6618 179.5,23.5C 179.167,23.5 178.833,23.5 178.5,23.5C 177.209,23.2627 176.209,23.596 175.5,24.5C 173.447,24.4021 171.78,25.0687 170.5,26.5C 168.447,26.4021 166.78,27.0687 165.5,28.5C 163.597,28.7959 161.93,29.4625 160.5,30.5C 155.375,32.5624 150.375,34.8957 145.5,37.5C 138.714,40.7593 133.381,44.0927 129.5,47.5C 129.5,48.5 129.5,49.5 129.5,50.5C 128.443,51.206 128.776,51.5393 130.5,51.5C 132.027,51.573 133.027,50.9063 133.5,49.5C 133.5,49.1667 133.5,48.8333 133.5,48.5C 135.027,48.573 136.027,47.9063 136.5,46.5C 137.167,46.5 137.833,46.5 138.5,46.5C 139.167,46.5 139.5,46.1667 139.5,45.5C 139.833,45.5 140.167,45.5 140.5,45.5C 142.179,45.7148 143.179,45.0481 143.5,43.5C 143.833,43.5 144.167,43.5 144.5,43.5C 145.71,43.0679 146.71,42.4013 147.5,41.5C 148.492,41.6716 149.158,41.3382 149.5,40.5C 150.492,40.6716 151.158,40.3382 151.5,39.5C 152.492,39.6716 153.158,39.3382 153.5,38.5C 154.492,38.6716 155.158,38.3382 155.5,37.5C 155.833,37.5 156.167,37.5 156.5,37.5C 157.167,37.5 157.5,37.1667 157.5,36.5C 157.833,36.5 158.167,36.5 158.5,36.5C 160.38,36.7709 161.713,36.1042 162.5,34.5C 163.492,34.6716 164.158,34.3382 164.5,33.5C 164.833,33.5 165.167,33.5 165.5,33.5C 169.35,32.0722 173.017,30.4056 176.5,28.5C 179.152,28.5905 181.485,27.9238 183.5,26.5C 185.042,25.6993 186.708,25.366 188.5,25.5C 195.696,24.198 202.696,22.5314 209.5,20.5C 210.167,20.5 210.833,20.5 211.5,20.5C 214.978,20.8158 218.312,20.3158 221.5,19C 219.432,18.3131 217.432,18.4798 215.5,19.5C 213.018,18.9329 210.684,18.2663 208.5,17.5C 238.463,11.9494 268.463,12.2827 298.5,18.5C 303.497,20.7493 308.83,22.0826 314.5,22.5C 315.674,24.3678 315.007,25.3678 312.5,25.5C 311.167,26.1667 311.167,26.8333 312.5,27.5C 313.551,28.2223 314.218,29.2223 314.5,30.5C 313.5,30.5 312.5,30.5 311.5,30.5C 308.444,27.9137 305.111,27.2471 301.5,28.5C 297.833,28.5 294.167,28.5 290.5,28.5C 287.721,28.7214 285.054,28.388 282.5,27.5C 282.082,26.7784 281.416,26.2784 280.5,26C 284.045,25.2829 287.545,25.4496 291,26.5C 291.5,26.1667 292,25.8333 292.5,25.5C 283.953,23.6877 275.287,22.6877 266.5,22.5C 264.167,22.5 261.833,22.5 259.5,22.5C 259.167,22.5 258.833,22.5 258.5,22.5C 257.533,23.8062 256.199,24.4729 254.5,24.5C 250.611,21.6596 246.277,20.9929 241.5,22.5C 244.107,23.3184 246.774,23.8184 249.5,24C 248.058,24.3768 247.058,25.2101 246.5,26.5C 244.393,27.4682 242.059,27.8016 239.5,27.5C 232.585,27.1326 225.919,27.7993 219.5,29.5C 215.575,29.4299 211.909,30.0966 208.5,31.5C 202.021,33.453 195.355,35.1197 188.5,36.5C 185.084,36.5275 182.084,37.5275 179.5,39.5C 177.447,39.4021 175.78,40.0687 174.5,41.5C 172.447,41.4021 170.78,42.0687 169.5,43.5C 141.481,55.1782 116.815,71.8448 95.5,93.5C 94.5655,94.5676 94.2322,95.901 94.5,97.5C 92.2375,98.8959 90.0709,100.563 88,102.5C 70.965,122.701 57.465,145.034 47.5,169.5C 46.0687,170.78 45.4021,172.447 45.5,174.5C 45.405,176.786 44.7384,178.786 43.5,180.5C 41.8372,182.438 41.1706,184.772 41.5,187.5C 39.8372,189.438 39.1706,191.772 39.5,194.5C 39.5,194.833 39.5,195.167 39.5,195.5C 38.0337,196.347 37.2004,197.68 37,199.5C 36.5034,201.81 36.3367,204.143 36.5,206.5C 31.9876,237.954 32.6543,269.287 38.5,300.5C 38.4095,303.152 39.0762,305.485 40.5,307.5C 40.4095,310.152 41.0762,312.485 42.5,314.5C 42.0535,317.01 42.7202,319.01 44.5,320.5C 48.897,332.336 53.897,344.003 59.5,355.5C 59.427,357.027 60.0937,358.027 61.5,358.5C 63.4168,361.331 65.0834,364.331 66.5,367.5C 66.427,369.027 67.0937,370.027 68.5,370.5C 68.427,372.027 69.0937,373.027 70.5,373.5C 74.0642,377.614 77.3975,381.948 80.5,386.5C 80.7376,388.404 81.7376,389.738 83.5,390.5C 85.5,391.833 87.1667,393.5 88.5,395.5C 91.5,400.5 95.5,404.5 100.5,407.5C 113.236,418.244 126.236,428.578 139.5,438.5C 140.035,440.446 141.368,441.446 143.5,441.5C 156.235,447.205 168.902,452.871 181.5,458.5C 182.78,459.931 184.447,460.598 186.5,460.5C 190.969,461.435 195.303,462.768 199.5,464.5C 199.611,465.117 199.944,465.617 200.5,466C 202.473,466.495 204.473,466.662 206.5,466.5C 206.833,466.5 207.167,466.5 207.5,466.5C 207.611,467.117 207.944,467.617 208.5,468C 210.81,468.497 213.143,468.663 215.5,468.5C 223.665,468.95 231.665,469.616 239.5,470.5C 244.065,472.04 248.898,472.707 254,472.5C 257.683,472.499 261.183,472.165 264.5,471.5C 272.795,470.557 281.128,469.557 289.5,468.5C 290.5,468.5 291.5,468.5 292.5,468.5C 292.33,469.822 292.663,470.989 293.5,472C 290.949,472.002 288.949,472.836 287.5,474.5C 286.833,474.833 286.167,475.167 285.5,475.5C 285.167,475.5 284.833,475.5 284.5,475.5C 281.615,475.194 278.948,475.527 276.5,476.5C 275.833,476.5 275.167,476.5 274.5,476.5C 269.968,476.182 265.634,476.515 261.5,477.5C 261.167,477.5 260.833,477.5 260.5,477.5C 252.493,477.334 244.493,477.5 236.5,478C 237.5,478.333 238.5,478.667 239.5,479C 249.009,479.824 258.343,479.658 267.5,478.5C 268.167,478.5 268.833,478.5 269.5,478.5C 272.059,478.802 274.393,478.468 276.5,477.5C 277.5,477.5 278.5,477.5 279.5,477.5C 281.292,477.634 282.958,477.301 284.5,476.5C 284.833,476.5 285.167,476.5 285.5,476.5C 287.292,476.634 288.958,476.301 290.5,475.5C 290.833,475.5 291.167,475.5 291.5,475.5C 298.23,474.902 304.564,473.236 310.5,470.5C 311.167,470.5 311.5,470.167 311.5,469.5C 313.099,469.768 314.432,469.434 315.5,468.5C 316.5,468.5 317.5,468.5 318.5,468.5C 319.492,468.672 320.158,468.338 320.5,467.5C 320.833,467.5 321.167,467.5 321.5,467.5C 322.492,467.672 323.158,467.338 323.5,466.5C 323.833,466.5 324.167,466.5 324.5,466.5C 325.492,466.672 326.158,466.338 326.5,465.5C 326.833,465.5 327.167,465.5 327.5,465.5C 328.167,465.5 328.5,465.167 328.5,464.5C 329.492,464.672 330.158,464.338 330.5,463.5C 331.167,463.5 331.833,463.5 332.5,463.5C 335.097,463.721 335.097,464.221 332.5,465C 333,465.167 333.5,465.333 334,465.5C 336.319,464.129 338.819,463.462 341.5,463.5C 340.167,464.5 338.833,465.5 337.5,466.5C 340.241,466.293 342.574,465.293 344.5,463.5C 355.418,459.71 365.418,454.377 374.5,447.5C 383.66,442.999 391.993,437.333 399.5,430.5C 399.5,430.167 399.5,429.833 399.5,429.5C 399.833,429.5 400.167,429.5 400.5,429.5C 403.167,427.167 405.833,424.833 408.5,422.5C 410.833,423.833 413.167,425.167 415.5,426.5C 415.5,427.5 415.5,428.5 415.5,429.5C 393.261,450.797 367.594,466.797 338.5,477.5C 336.447,477.402 334.78,478.069 333.5,479.5C 332.791,480.404 331.791,480.737 330.5,480.5C 328.214,480.595 326.214,481.262 324.5,482.5C 309.376,487.859 293.71,491.193 277.5,492.5C 263.178,493.211 248.844,493.544 234.5,493.5C 230.4,493.763 226.4,493.43 222.5,492.5C 216.791,490.495 210.791,489.495 204.5,489.5C 199.556,489.246 194.889,488.246 190.5,486.5C 188.485,485.076 186.152,484.41 183.5,484.5C 181.708,484.634 180.042,484.301 178.5,483.5C 177.01,481.72 175.01,481.054 172.5,481.5C 170.447,481.598 168.78,480.931 167.5,479.5C 165.898,477.926 163.898,477.259 161.5,477.5C 150.731,473.281 140.397,468.281 130.5,462.5C 130.027,461.094 129.027,460.427 127.5,460.5C 127.027,459.094 126.027,458.427 124.5,458.5C 123.508,458.672 122.842,458.338 122.5,457.5C 122.027,456.094 121.027,455.427 119.5,455.5C 119.027,454.094 118.027,453.427 116.5,453.5C 116.027,452.094 115.027,451.427 113.5,451.5C 111.596,451.262 110.262,450.262 109.5,448.5C 109.027,447.094 108.027,446.427 106.5,446.5C 105.415,444.413 103.749,443.08 101.5,442.5C 98.9108,441.581 96.9108,439.914 95.5,437.5C 94.7377,435.738 93.4044,434.738 91.5,434.5C 89.8333,433.5 88.5,432.167 87.5,430.5C 86.7377,428.738 85.4044,427.738 83.5,427.5C 81.1667,425.833 79.1667,423.833 77.5,421.5C 77.5,419.5 76.5,418.5 74.5,418.5C 61.5535,405.264 50.5535,390.598 41.5,374.5C 41.4456,372.368 40.4456,371.035 38.5,370.5C 33.6433,362.12 29.3099,353.453 25.5,344.5C 25.2927,341.759 24.2927,339.426 22.5,337.5C 23.0838,334.715 22.0838,333.048 19.5,332.5C 17.7679,328.303 16.4345,323.969 15.5,319.5C 15.9465,316.99 15.2798,314.99 13.5,313.5C 13.6621,311.473 13.4955,309.473 13,307.5C 12.6174,306.944 12.1174,306.611 11.5,306.5C 11.5,306.167 11.5,305.833 11.5,305.5C 11.8294,302.772 11.1628,300.438 9.5,298.5C 9.5,298.167 9.5,297.833 9.5,297.5C 9.37528,291.556 8.37528,285.89 6.5,280.5C 5.16667,276.833 5.16667,273.167 6.5,269.5C 6.19767,266.627 5.53101,263.961 4.5,261.5C 4.5,261.167 4.5,260.833 4.5,260.5C 4.54884,253.151 4.88217,245.817 5.5,238.5C 5.5,237.833 5.5,237.167 5.5,236.5C 6.13863,235.903 6.47196,235.07 6.5,234C 6.12655,232.45 5.45988,231.283 4.5,230.5C 4.12909,223.174 5.12909,216.174 7.5,209.5C 9.01088,207.524 9.84421,205.191 10,202.5C 10.4983,199.183 10.665,195.85 10.5,192.5C 10.5651,189.572 11.2318,186.905 12.5,184.5C 13.9238,182.485 14.5905,180.152 14.5,177.5C 15.3904,171.834 17.057,166.5 19.5,161.5C 21.256,160.448 21.9227,158.781 21.5,156.5C 25.8515,144.132 31.5181,132.465 38.5,121.5C 39.9063,121.027 40.573,120.027 40.5,118.5C 41.9063,118.027 42.573,117.027 42.5,115.5C 43.3403,113.147 44.6736,111.147 46.5,109.5C 47.9063,109.027 48.573,108.027 48.5,106.5C 50.016,103.467 52.016,100.8 54.5,98.5C 55.8853,97.3862 57.3853,96.3862 59,95.5C 63.6284,89.0382 68.795,83.0382 74.5,77.5C 75.5,75.8333 76.8333,74.5 78.5,73.5C 82.1002,71.5698 85.1002,68.9031 87.5,65.5C 87.5,64.8333 87.8333,64.5 88.5,64.5C 91.0892,63.5806 93.0892,61.914 94.5,59.5C 96.7488,58.9202 98.4154,57.5869 99.5,55.5C 101.404,55.2624 102.738,54.2624 103.5,52.5C 105.404,52.2624 106.738,51.2624 107.5,49.5C 111.624,45.7191 116.291,42.7191 121.5,40.5C 123.027,40.573 124.027,39.9063 124.5,38.5C 124.842,37.6618 125.508,37.3284 126.5,37.5C 128.027,37.573 129.027,36.9063 129.5,35.5C 133.182,32.9922 137.182,30.9922 141.5,29.5C 143.027,29.573 144.027,28.9063 144.5,27.5C 147.491,27.8337 149.824,26.8337 151.5,24.5C 159,20.3312 167,17.3312 175.5,15.5C 180.165,14.9431 184.498,13.6098 188.5,11.5C 192.163,11.0482 195.83,10.5482 199.5,10C 200.056,9.61742 200.389,9.11742 200.5,8.5C 201.919,7.54885 203.585,7.21552 205.5,7.5C 216.038,6.68308 226.371,5.34975 236.5,3.5 Z M 195.5,18.5 C 196.492,18.3284 197.158,18.6618 197.5,19.5C 195.847,19.6596 194.514,20.3263 193.5,21.5C 191.251,22.0798 189.585,23.4131 188.5,25.5C 186.708,25.366 185.042,25.6993 183.5,26.5C 183.062,26.5654 182.728,26.3988 182.5,26C 184.037,24.8904 184.703,23.3904 184.5,21.5C 188.314,20.9636 191.981,19.9636 195.5,18.5 Z M 136.5,46.5 C 136.027,47.9063 135.027,48.573 133.5,48.5C 133.973,47.0937 134.973,46.427 136.5,46.5 Z M 121.5,56.5 C 120.101,57.8897 118.434,58.8897 116.5,59.5C 117.401,57.2729 119.067,56.2729 121.5,56.5 Z M 116.5,59.5 C 115.738,61.2624 114.404,62.2624 112.5,62.5C 113.262,60.7376 114.596,59.7376 116.5,59.5 Z M 110.5,64.5 C 110.027,65.9063 109.027,66.573 107.5,66.5C 107.973,65.0937 108.973,64.427 110.5,64.5 Z"/></g>
<g><path style="opacity:0.173" fill="#f9c5b7" d="M 170.5,26.5 C 170.5,26.8333 170.5,27.1667 170.5,27.5C 170.5,28.1667 170.167,28.5 169.5,28.5C 169.167,27.1667 168.833,27.1667 168.5,28.5C 168.158,29.3382 167.492,29.6716 166.5,29.5C 166.5,28.8333 166.167,28.5 165.5,28.5C 166.78,27.0687 168.447,26.4021 170.5,26.5 Z"/></g>
<g><path style="opacity:0.239" fill="#f5bfb1" d="M 175.5,24.5 C 175.5,24.8333 175.5,25.1667 175.5,25.5C 175.5,26.1667 175.167,26.5 174.5,26.5C 174.167,25.1667 173.833,25.1667 173.5,26.5C 173.158,27.3382 172.492,27.6716 171.5,27.5C 171.5,26.8333 171.167,26.5 170.5,26.5C 171.78,25.0687 173.447,24.4021 175.5,24.5 Z"/></g>
<g><path style="opacity:0.271" fill="#f9b7a7" d="M 258.5,22.5 C 258.833,23.8333 259.167,23.8333 259.5,22.5C 261.833,22.5 264.167,22.5 266.5,22.5C 268.751,23.4106 270.751,24.744 272.5,26.5C 266.52,26.258 260.52,25.5914 254.5,24.5C 256.199,24.4729 257.533,23.8062 258.5,22.5 Z"/></g>
<g><path style="opacity:1" fill="#f7a995" d="M 182.5,22.5 C 182.842,21.6618 183.508,21.3284 184.5,21.5C 184.703,23.3904 184.037,24.8904 182.5,26C 182.728,26.3988 183.062,26.5654 183.5,26.5C 181.485,27.9238 179.152,28.5905 176.5,28.5C 177.6,27.4415 178.934,26.6082 180.5,26C 179.552,25.5172 178.552,25.3505 177.5,25.5C 177.158,24.6618 176.492,24.3284 175.5,24.5C 176.209,23.596 177.209,23.2627 178.5,23.5C 179.849,24.6441 180.183,24.6441 179.5,23.5C 179.842,22.6618 180.508,22.3284 181.5,22.5C 182.849,23.6441 183.183,23.6441 182.5,22.5 Z"/></g>
<g><path style="opacity:1" fill="#f27251" d="M 266.5,22.5 C 275.287,22.6877 283.953,23.6877 292.5,25.5C 292,25.8333 291.5,26.1667 291,26.5C 287.545,25.4496 284.045,25.2829 280.5,26C 281.416,26.2784 282.082,26.7784 282.5,27.5C 279.119,27.5405 275.786,27.2071 272.5,26.5C 270.751,24.744 268.751,23.4106 266.5,22.5 Z"/></g>
<g><path style="opacity:0.788" fill="#f8a089" d="M 322.5,22.5 C 325.716,22.3455 328.383,23.3455 330.5,25.5C 327.603,24.871 324.936,23.871 322.5,22.5 Z"/></g>
<g><path style="opacity:0.349" fill="#f5a996" d="M 202.5,18.5 C 202.5,18.1667 202.5,17.8333 202.5,17.5C 204.5,17.5 206.5,17.5 208.5,17.5C 210.684,18.2663 213.018,18.9329 215.5,19.5C 217.432,18.4798 219.432,18.3131 221.5,19C 218.312,20.3158 214.978,20.8158 211.5,20.5C 209.952,19.266 209.285,19.266 209.5,20.5C 202.696,22.5314 195.696,24.198 188.5,25.5C 189.585,23.4131 191.251,22.0798 193.5,21.5C 193.735,22.0967 194.235,22.4301 195,22.5C 198.815,22.1218 202.315,20.9552 205.5,19C 204.552,18.5172 203.552,18.3505 202.5,18.5 Z"/></g>
<g><path style="opacity:0.614" fill="#f6957c" d="M 254.5,24.5 C 251.779,24.9628 249.112,25.6295 246.5,26.5C 247.058,25.2101 248.058,24.3768 249.5,24C 246.774,23.8184 244.107,23.3184 241.5,22.5C 246.277,20.9929 250.611,21.6596 254.5,24.5 Z"/></g>
<g><path style="opacity:0.925" fill="#f48164" d="M 322.5,22.5 C 317.563,21.7388 312.897,20.4054 308.5,18.5C 312.897,20.4054 317.563,21.7388 322.5,22.5 Z"/></g>
<g><path style="opacity:1" fill="#ed5a35" d="M 201.5,18.5 C 201.833,18.5 202.167,18.5 202.5,18.5C 203.552,18.3505 204.552,18.5172 205.5,19C 202.315,20.9552 198.815,22.1218 195,22.5C 194.235,22.4301 193.735,22.0967 193.5,21.5C 194.514,20.3263 195.847,19.6596 197.5,19.5C 199.099,19.7678 200.432,19.4345 201.5,18.5 Z"/></g>
<g><path style="opacity:0.137" fill="#fbc1b2" d="M 298.5,18.5 C 304.094,19.2317 309.427,20.565 314.5,22.5C 308.83,22.0826 303.497,20.7493 298.5,18.5 Z"/></g>
<g><path style="opacity:0.576" fill="#f28469" d="M 231.5,16.5 C 239.174,16.3336 246.841,16.5003 254.5,17C 245.173,18.2583 235.84,18.925 226.5,19C 228.491,18.6264 230.158,17.793 231.5,16.5 Z"/></g>
<g><path style="opacity:0.049" fill="#f7c6ba" d="M 195.5,18.5 C 196.209,17.596 197.209,17.2627 198.5,17.5C 199.209,18.404 200.209,18.7373 201.5,18.5C 200.432,19.4345 199.099,19.7678 197.5,19.5C 197.158,18.6618 196.492,18.3284 195.5,18.5 Z"/></g>
<g><path style="opacity:0.071" fill="#facdc2" d="M 267.5,12.5 C 251.816,12.3039 236.149,12.6372 220.5,13.5C 229.277,11.9479 238.277,11.2812 247.5,11.5C 254.342,11.5004 261.009,11.8337 267.5,12.5 Z"/></g>
<g><path style="opacity:0.776" fill="#f99f89" d="M 144.5,27.5 C 144.027,28.9063 143.027,29.573 141.5,29.5C 141.973,28.0937 142.973,27.427 144.5,27.5 Z"/></g>
<g><path style="opacity:1" fill="#ea532e" d="M 175.5,25.5 C 176.167,25.5 176.833,25.5 177.5,25.5C 178.552,25.3505 179.552,25.5172 180.5,26C 178.934,26.6082 177.6,27.4415 176.5,28.5C 172.231,29.6992 167.897,30.6992 163.5,31.5C 164.167,30.8333 164.833,30.1667 165.5,29.5C 165.833,29.5 166.167,29.5 166.5,29.5C 167.492,29.6716 168.158,29.3382 168.5,28.5C 168.833,28.5 169.167,28.5 169.5,28.5C 170.167,28.5 170.5,28.1667 170.5,27.5C 170.833,27.5 171.167,27.5 171.5,27.5C 172.492,27.6716 173.158,27.3382 173.5,26.5C 173.833,26.5 174.167,26.5 174.5,26.5C 175.167,26.5 175.5,26.1667 175.5,25.5 Z"/></g>
<g><path style="opacity:0.22" fill="#f7cbc0" d="M 176.5,28.5 C 173.017,30.4056 169.35,32.0722 165.5,33.5C 165.158,32.6618 164.492,32.3284 163.5,32.5C 163.5,32.1667 163.5,31.8333 163.5,31.5C 167.897,30.6992 172.231,29.6992 176.5,28.5 Z"/></g>
<g><path style="opacity:0.059" fill="#fbccc1" d="M 239.5,27.5 C 233.03,28.6956 226.363,29.3623 219.5,29.5C 225.919,27.7993 232.585,27.1326 239.5,27.5 Z"/></g>
<g><path style="opacity:0.722" fill="#faac97" d="M 301.5,28.5 C 305.111,27.2471 308.444,27.9137 311.5,30.5C 310.5,30.5 309.5,30.5 308.5,30.5C 307.432,29.5655 306.099,29.2322 304.5,29.5C 303.791,28.596 302.791,28.2627 301.5,28.5 Z"/></g>
<g><path style="opacity:0.055" fill="#fcd6cd" d="M 165.5,28.5 C 165.5,28.8333 165.5,29.1667 165.5,29.5C 164.833,30.1667 164.167,30.8333 163.5,31.5C 163.167,31.5 162.833,31.5 162.5,31.5C 162.158,30.6618 161.492,30.3284 160.5,30.5C 161.93,29.4625 163.597,28.7959 165.5,28.5 Z"/></g>
<g><path style="opacity:0.098" fill="#fcd0c6" d="M 290.5,28.5 C 294.167,28.5 297.833,28.5 301.5,28.5C 302.209,29.404 303.209,29.7373 304.5,29.5C 299.769,30.6608 295.103,30.3275 290.5,28.5 Z"/></g>
<g><path style="opacity:0.145" fill="#fbc4b6" d="M 219.5,29.5 C 216.091,30.9034 212.425,31.5701 208.5,31.5C 211.909,30.0966 215.575,29.4299 219.5,29.5 Z"/></g>
<g><path style="opacity:0.376" fill="#f9baaa" d="M 308.5,30.5 C 309.5,31.8333 310.5,31.8333 311.5,30.5C 312.5,30.5 313.5,30.5 314.5,30.5C 314.5,30.8333 314.5,31.1667 314.5,31.5C 315.833,31.8333 317.167,32.1667 318.5,32.5C 320.493,34.1632 322.826,35.3299 325.5,36C 326.252,36.6708 326.586,37.5041 326.5,38.5C 319.486,36.1058 312.486,33.6058 305.5,31C 306.448,30.5172 307.448,30.3505 308.5,30.5 Z"/></g>
<g><path style="opacity:0.161" fill="#fbcfc4" d="M 160.5,30.5 C 160.842,31.3382 161.508,31.6716 162.5,31.5C 162.5,32.1667 162.833,32.5 163.5,32.5C 163.5,33.1667 163.833,33.5 164.5,33.5C 164.158,34.3382 163.492,34.6716 162.5,34.5C 162.5,33.8333 162.167,33.5 161.5,33.5C 161.265,32.9033 160.765,32.5699 160,32.5C 155.458,34.4029 150.958,36.4029 146.5,38.5C 145.893,38.3764 145.56,38.0431 145.5,37.5C 150.375,34.8957 155.375,32.5624 160.5,30.5 Z"/></g>
<g><path style="opacity:0.004" fill="#fde0d9" d="M 155.5,36.5 C 155.842,35.6618 156.508,35.3284 157.5,35.5C 157.5,35.8333 157.5,36.1667 157.5,36.5C 157.5,37.1667 157.167,37.5 156.5,37.5C 156.5,36.8333 156.167,36.5 155.5,36.5 Z"/></g>
<g><path style="opacity:0.686" fill="#f9aa95" d="M 129.5,35.5 C 129.027,36.9063 128.027,37.573 126.5,37.5C 126.973,36.0937 127.973,35.427 129.5,35.5 Z"/></g>
<g><path style="opacity:0.91" fill="#f28568" d="M 188.5,36.5 C 185.785,38.0719 182.785,39.0719 179.5,39.5C 182.084,37.5275 185.084,36.5275 188.5,36.5 Z"/></g>
<g><path style="opacity:0.878" fill="#f1704f" d="M 344.5,42.5 C 345.091,43.1515 345.757,43.8182 346.5,44.5C 346.043,45.2975 345.376,45.6309 344.5,45.5C 338.35,43.5608 332.35,41.2275 326.5,38.5C 326.586,37.5041 326.252,36.6708 325.5,36C 322.826,35.3299 320.493,34.1632 318.5,32.5C 319.117,32.3893 319.617,32.056 320,31.5C 325.665,34.0806 331.498,36.2472 337.5,38C 340.239,39.0259 342.572,40.5259 344.5,42.5 Z"/></g>
<g><path style="opacity:0.741" fill="#f79c86" d="M 124.5,38.5 C 124.027,39.9063 123.027,40.573 121.5,40.5C 121.973,39.0937 122.973,38.427 124.5,38.5 Z"/></g>
<g><path style="opacity:0.38" fill="#f8ab98" d="M 179.5,39.5 C 178.22,40.9313 176.553,41.5979 174.5,41.5C 175.78,40.0687 177.447,39.4021 179.5,39.5 Z"/></g>
<g><path style="opacity:0.051" fill="#fcd0c6" d="M 146.5,40.5 C 146.5,41.1667 146.833,41.5 147.5,41.5C 146.71,42.4013 145.71,43.0679 144.5,43.5C 144.5,42.8333 144.167,42.5 143.5,42.5C 144.29,41.5987 145.29,40.9321 146.5,40.5 Z"/></g>
<g><path style="opacity:1" fill="#ea431c" d="M 146.5,40.5 C 145.29,40.9321 144.29,41.5987 143.5,42.5C 142.508,42.3284 141.842,42.6618 141.5,43.5C 140.448,43.6495 139.448,43.4828 138.5,43C 140.833,41.8333 143.167,40.6667 145.5,39.5C 146.107,39.6236 146.44,39.9569 146.5,40.5 Z"/></g>
<g><path style="opacity:0.247" fill="#f5bdaf" d="M 174.5,41.5 C 173.22,42.9313 171.553,43.5979 169.5,43.5C 170.78,42.0687 172.447,41.4021 174.5,41.5 Z"/></g>
<g><path style="opacity:1" fill="#ee5832" d="M 338.5,18.5 C 340.403,18.7959 342.07,19.4625 343.5,20.5C 344.552,22.256 346.219,22.9227 348.5,22.5C 379.228,37.1266 406.395,56.7933 430,81.5C 436.433,88.759 442.266,96.4257 447.5,104.5C 447.427,106.027 448.094,107.027 449.5,107.5C 449.414,108.496 449.748,109.329 450.5,110C 449.207,110.49 447.873,110.657 446.5,110.5C 440.545,103.043 434.045,96.0429 427,89.5C 411.237,72.0356 393.404,57.0356 373.5,44.5C 373.027,43.0937 372.027,42.427 370.5,42.5C 357.549,36.5196 344.549,30.8529 331.5,25.5C 333.861,25.6741 336.194,26.0074 338.5,26.5C 338.792,23.6239 338.792,20.9572 338.5,18.5 Z"/></g>
<g><path style="opacity:0.369" fill="#f5ae9d" d="M 370.5,42.5 C 372.027,42.427 373.027,43.0937 373.5,44.5C 371.973,44.573 370.973,43.9063 370.5,42.5 Z"/></g>
<g><path style="opacity:0.925" fill="#f89074" d="M 161.5,33.5 C 162.167,33.5 162.5,33.8333 162.5,34.5C 161.713,36.1042 160.38,36.7709 158.5,36.5C 158.5,35.8333 158.167,35.5 157.5,35.5C 156.508,35.3284 155.842,35.6618 155.5,36.5C 154.167,36.8333 154.167,37.1667 155.5,37.5C 155.158,38.3382 154.492,38.6716 153.5,38.5C 153.158,39.3382 152.492,39.6716 151.5,39.5C 151.158,40.3382 150.492,40.6716 149.5,40.5C 149.158,41.3382 148.492,41.6716 147.5,41.5C 146.833,41.5 146.5,41.1667 146.5,40.5C 146.44,39.9569 146.107,39.6236 145.5,39.5C 143.167,40.6667 140.833,41.8333 138.5,43C 139.448,43.4828 140.448,43.6495 141.5,43.5C 141.842,42.6618 142.508,42.3284 143.5,42.5C 143.5,42.8333 143.5,43.1667 143.5,43.5C 143.179,45.0481 142.179,45.7148 140.5,45.5C 140.167,44.1667 139.833,44.1667 139.5,45.5C 139.5,46.1667 139.167,46.5 138.5,46.5C 137.833,45.1667 137.167,45.1667 136.5,46.5C 134.973,46.427 133.973,47.0937 133.5,48.5C 132.508,48.3284 131.842,48.6618 131.5,49.5C 130.833,49.5 130.5,49.8333 130.5,50.5C 130.167,50.5 129.833,50.5 129.5,50.5C 129.5,49.5 129.5,48.5 129.5,47.5C 133.381,44.0927 138.714,40.7593 145.5,37.5C 145.56,38.0431 145.893,38.3764 146.5,38.5C 150.958,36.4029 155.458,34.4029 160,32.5C 160.765,32.5699 161.265,32.9033 161.5,33.5 Z"/></g>
<g><path style="opacity:0.392" fill="#f6b8a9" d="M 344.5,42.5 C 350.925,45.0073 357.592,48.3406 364.5,52.5C 357.448,51.8134 350.781,49.48 344.5,45.5C 345.376,45.6309 346.043,45.2975 346.5,44.5C 345.757,43.8182 345.091,43.1515 344.5,42.5 Z"/></g>
<g><path style="opacity:0.639" fill="#faa590" d="M 107.5,49.5 C 106.738,51.2624 105.404,52.2624 103.5,52.5C 104.262,50.7376 105.596,49.7376 107.5,49.5 Z"/></g>
<g><path style="opacity:0.8" fill="#f99e86" d="M 131.5,49.5 C 132.167,49.5 132.833,49.5 133.5,49.5C 133.027,50.9063 132.027,51.573 130.5,51.5C 130.5,51.1667 130.5,50.8333 130.5,50.5C 131.167,50.5 131.5,50.1667 131.5,49.5 Z"/></g>
<g><path style="opacity:0.69" fill="#f89e87" d="M 103.5,52.5 C 102.738,54.2624 101.404,55.2624 99.5,55.5C 100.262,53.7376 101.596,52.7376 103.5,52.5 Z"/></g>
<g><path style="opacity:0.522" fill="#f9a995" d="M 368.5,54.5 C 370.027,54.427 371.027,55.0937 371.5,56.5C 369.973,56.573 368.973,55.9063 368.5,54.5 Z"/></g>
<g><path style="opacity:1" fill="#ec5029" d="M 314.5,22.5 C 344.67,30.2475 371.337,44.2475 394.5,64.5C 393.761,64.369 393.094,64.5357 392.5,65C 393.641,65.7412 393.641,66.5745 392.5,67.5C 393.09,68.7989 394.09,69.6322 395.5,70C 394.436,71.5106 393.103,71.6772 391.5,70.5C 388.19,68.5179 385.19,66.1846 382.5,63.5C 382.027,62.0937 381.027,61.427 379.5,61.5C 379.027,60.0937 378.027,59.427 376.5,59.5C 376.027,58.0937 375.027,57.427 373.5,57.5C 372.508,57.6716 371.842,57.3382 371.5,56.5C 371.027,55.0937 370.027,54.427 368.5,54.5C 366.847,54.3404 365.514,53.6737 364.5,52.5C 357.592,48.3406 350.925,45.0073 344.5,42.5C 342.572,40.5259 340.239,39.0259 337.5,38C 331.498,36.2472 325.665,34.0806 320,31.5C 319.617,32.056 319.117,32.3893 318.5,32.5C 317.167,32.1667 315.833,31.8333 314.5,31.5C 314.5,31.1667 314.5,30.8333 314.5,30.5C 314.218,29.2223 313.551,28.2223 312.5,27.5C 313.239,27.631 313.906,27.4643 314.5,27C 313.584,26.7216 312.918,26.2216 312.5,25.5C 315.007,25.3678 315.674,24.3678 314.5,22.5 Z"/></g>
<g><path style="opacity:0.361" fill="#f7ac9a" d="M 375.5,55.5 C 375.56,54.9569 375.893,54.6236 376.5,54.5C 377.7,55.5312 379.034,56.3645 380.5,57C 381.451,57.7175 381.617,58.5509 381,59.5C 379.008,58.3353 377.175,57.002 375.5,55.5 Z"/></g>
<g><path style="opacity:0.992" fill="#f68c6f" d="M 99.5,55.5 C 98.4154,57.5869 96.7488,58.9202 94.5,59.5C 95.5846,57.4131 97.2512,56.0798 99.5,55.5 Z"/></g>
<g><path style="opacity:0.49" fill="#f8a894" d="M 373.5,57.5 C 375.027,57.427 376.027,58.0937 376.5,59.5C 374.973,59.573 373.973,58.9063 373.5,57.5 Z"/></g>
<g><path style="opacity:0.486" fill="#f8a894" d="M 376.5,59.5 C 378.027,59.427 379.027,60.0937 379.5,61.5C 377.973,61.573 376.973,60.9063 376.5,59.5 Z"/></g>
<g><path style="opacity:0.929" fill="#f78b6e" d="M 94.5,59.5 C 93.0892,61.914 91.0892,63.5806 88.5,64.5C 89.9108,62.086 91.9108,60.4194 94.5,59.5 Z"/></g>
<g><path style="opacity:0.565" fill="#f8a18b" d="M 379.5,61.5 C 381.027,61.427 382.027,62.0937 382.5,63.5C 380.973,63.573 379.973,62.9063 379.5,61.5 Z"/></g>
<g><path style="opacity:1" fill="#f16c48" d="M 394.5,64.5 C 397.792,66.4581 400.792,68.7915 403.5,71.5C 402.504,71.5858 401.671,71.2524 401,70.5C 400.167,72 399,73.1667 397.5,74C 398.71,75.0391 399.71,76.2058 400.5,77.5C 397.208,75.5419 394.208,73.2085 391.5,70.5C 393.103,71.6772 394.436,71.5106 395.5,70C 394.09,69.6322 393.09,68.7989 392.5,67.5C 393.641,66.5745 393.641,65.7412 392.5,65C 393.094,64.5357 393.761,64.369 394.5,64.5 Z"/></g>
<g><path style="opacity:1" fill="#f78567" d="M 87.5,65.5 C 85.1002,68.9031 82.1002,71.5698 78.5,73.5C 80.8998,70.0969 83.8998,67.4302 87.5,65.5 Z"/></g>
<g><path style="opacity:0.937" fill="#f6876a" d="M 102.5,70.5 C 103.167,70.5 103.833,70.5 104.5,70.5C 103.415,72.5869 101.749,73.9202 99.5,74.5C 99.5,74.1667 99.5,73.8333 99.5,73.5C 100.167,73.5 100.5,73.1667 100.5,72.5C 101.167,72.5 101.5,72.1667 101.5,71.5C 102.167,71.5 102.5,71.1667 102.5,70.5 Z"/></g>
<g><path style="opacity:1" fill="#ec4f28" d="M 403.5,71.5 C 410.5,77.8333 417.167,84.5 423.5,91.5C 423.427,93.0269 424.094,94.0269 425.5,94.5C 428.55,96.5491 430.883,99.2157 432.5,102.5C 432.427,104.027 433.094,105.027 434.5,105.5C 438.94,110.278 442.607,115.612 445.5,121.5C 445.92,123.094 446.586,124.594 447.5,126C 447.43,126.765 447.097,127.265 446.5,127.5C 446.167,127.5 445.833,127.5 445.5,127.5C 445.672,126.508 445.338,125.842 444.5,125.5C 444.5,124.833 444.167,124.5 443.5,124.5C 443.5,124.167 443.5,123.833 443.5,123.5C 441.588,121.343 439.921,119.009 438.5,116.5C 429.242,104.239 419.242,92.5721 408.5,81.5C 407.304,81.8457 407.304,82.3457 408.5,83C 407.906,83.4643 407.239,83.631 406.5,83.5C 404.167,81.8333 402.167,79.8333 400.5,77.5C 399.71,76.2058 398.71,75.0391 397.5,74C 399,73.1667 400.167,72 401,70.5C 401.671,71.2524 402.504,71.5858 403.5,71.5 Z"/></g>
<g><path style="opacity:0.412" fill="#facabe" d="M 96.5,75.5 C 95.9202,77.7488 94.5869,79.4154 92.5,80.5C 92.1667,80.5 91.8333,80.5 91.5,80.5C 92.8333,78.5 94.5,76.8333 96.5,75.5 Z"/></g>
<g><path style="opacity:0.933" fill="#f68667" d="M 91.5,80.5 C 91.8333,80.5 92.1667,80.5 92.5,80.5C 91.1207,83.0735 89.1207,84.5735 86.5,85C 88.0375,83.2927 89.7041,81.7927 91.5,80.5 Z"/></g>
<g><path style="opacity:0.49" fill="#f9ac98" d="M 74.5,77.5 C 68.795,83.0382 63.6284,89.0382 59,95.5C 57.3853,96.3862 55.8853,97.3862 54.5,98.5C 58.9707,91.0932 64.304,84.2598 70.5,78C 71.7932,77.51 73.1266,77.3433 74.5,77.5 Z"/></g>
<g><path style="opacity:0.529" fill="#f39178" d="M 72.5,100.5 C 75.173,95.3134 78.8397,90.8134 83.5,87C 84.1667,86.3333 84.8333,86.3333 85.5,87C 80.9357,91.3954 76.6023,95.8954 72.5,100.5 Z"/></g>
<g><path style="opacity:0.773" fill="#faa18a" d="M 423.5,91.5 C 424.906,91.9731 425.573,92.9731 425.5,94.5C 424.094,94.0269 423.427,93.0269 423.5,91.5 Z"/></g>
<g><path style="opacity:0.894" fill="#faa690" d="M 95.5,93.5 C 96.9538,95.2633 96.6204,96.5967 94.5,97.5C 94.2322,95.901 94.5655,94.5676 95.5,93.5 Z"/></g>
<g><path style="opacity:0.798" fill="#f59982" d="M 438.5,116.5 C 437.596,117.209 437.263,118.209 437.5,119.5C 432.687,113.235 427.854,106.902 423,100.5C 417.297,94.9647 411.797,89.2981 406.5,83.5C 407.239,83.631 407.906,83.4643 408.5,83C 407.304,82.3457 407.304,81.8457 408.5,81.5C 419.242,92.5721 429.242,104.239 438.5,116.5 Z"/></g>
<g><path style="opacity:0.337" fill="#f6ad9a" d="M 72.5,100.5 C 72.2624,102.404 71.2624,103.738 69.5,104.5C 69.7376,102.596 70.7376,101.262 72.5,100.5 Z"/></g>
<g><path style="opacity:0.541" fill="#f9aa95" d="M 432.5,102.5 C 433.906,102.973 434.573,103.973 434.5,105.5C 433.094,105.027 432.427,104.027 432.5,102.5 Z"/></g>
<g><path style="opacity:0.494" fill="#f7ac99" d="M 447.5,104.5 C 448.906,104.973 449.573,105.973 449.5,107.5C 448.094,107.027 447.427,106.027 447.5,104.5 Z"/></g>
<g><path style="opacity:0.651" fill="#f89b83" d="M 48.5,106.5 C 48.573,108.027 47.9063,109.027 46.5,109.5C 46.427,107.973 47.0937,106.973 48.5,106.5 Z"/></g>
<g><path style="opacity:1" fill="#f27654" d="M 449.5,107.5 C 451.25,108.659 452.25,110.326 452.5,112.5C 451.105,110.946 450.439,111.279 450.5,113.5C 451.754,115.334 452.421,117.334 452.5,119.5C 449.759,117.025 447.759,114.025 446.5,110.5C 447.873,110.657 449.207,110.49 450.5,110C 449.748,109.329 449.414,108.496 449.5,107.5 Z"/></g>
<g><path style="opacity:1" fill="#e93d14" d="M 353.5,113.5 C 359.024,114.766 362.691,118.1 364.5,123.5C 364.427,125.027 365.094,126.027 366.5,126.5C 367.338,126.842 367.672,127.508 367.5,128.5C 367.166,131.491 368.166,133.824 370.5,135.5C 373.615,147.158 375.115,159.158 375,171.5C 375.77,202.179 375.603,232.846 374.5,263.5C 373.301,284.991 372.634,306.658 372.5,328.5C 372.365,341.721 370.698,354.721 367.5,367.5C 365.337,369.083 363.004,370.416 360.5,371.5C 356.426,371.701 352.426,372.368 348.5,373.5C 348.709,374.086 349.043,374.586 349.5,375C 347.456,375.498 346.122,376.665 345.5,378.5C 343.214,378.595 341.214,379.262 339.5,380.5C 329.405,382.392 319.072,383.392 308.5,383.5C 278.977,383.991 249.643,383.991 220.5,383.5C 219.833,380.833 219.167,380.833 218.5,383.5C 218.158,384.338 217.492,384.672 216.5,384.5C 216.027,383.094 215.027,382.427 213.5,382.5C 212.041,382.433 210.708,382.766 209.5,383.5C 207.784,383.371 206.117,383.038 204.5,382.5C 202.565,381.85 200.565,381.517 198.5,381.5C 197.883,381.611 197.383,381.944 197,382.5C 196.904,379.549 196.071,376.882 194.5,374.5C 193.614,375.325 193.281,376.325 193.5,377.5C 193.443,378.609 193.11,379.609 192.5,380.5C 192.631,381.239 192.464,381.906 192,382.5C 191.275,377.748 190.275,373.081 189,368.5C 188.741,371.587 188.241,374.587 187.5,377.5C 187.5,377.833 187.5,378.167 187.5,378.5C 187.028,380.531 186.028,382.198 184.5,383.5C 183.89,382.609 183.557,381.609 183.5,380.5C 182.961,378.495 182.295,376.495 181.5,374.5C 180.702,374.957 180.369,375.624 180.5,376.5C 179.609,377.11 178.609,377.443 177.5,377.5C 173.942,375.888 170.275,374.555 166.5,373.5C 166.082,372.778 165.416,372.278 164.5,372C 155.492,371.552 146.492,371.052 137.5,370.5C 129.238,366.739 123.071,360.739 119,352.5C 118.483,336.223 117.983,319.889 117.5,303.5C 119.057,297.739 119.724,291.739 119.5,285.5C 120.833,285.5 122.167,285.5 123.5,285.5C 123.505,281.466 123.838,277.466 124.5,273.5C 125.906,273.027 126.573,272.027 126.5,270.5C 126.842,269.662 127.508,269.328 128.5,269.5C 130.017,269.489 131.184,268.823 132,267.5C 132.781,264.183 132.281,261.183 130.5,258.5C 129.179,249.023 129.179,239.523 130.5,230C 130.137,227.808 129.137,225.974 127.5,224.5C 126.85,222.565 126.517,220.565 126.5,218.5C 125.5,218.5 124.5,218.5 123.5,218.5C 123.969,210.504 122.969,202.837 120.5,195.5C 117.694,183.349 116.527,171.015 117,158.5C 118.111,151.908 121.611,147.241 127.5,144.5C 130.675,144.497 133.508,143.497 136,141.5C 137.308,142.151 138.141,141.485 138.5,139.5C 139.749,137.864 141.416,136.697 143.5,136C 150.592,132.951 157.925,130.784 165.5,129.5C 176.283,128 186.95,126.666 197.5,125.5C 222.667,126.317 247.667,126.317 272.5,125.5C 275.187,125.664 277.854,125.497 280.5,125C 281.416,124.722 282.082,124.222 282.5,123.5C 282.833,123.5 283.167,123.5 283.5,123.5C 287.425,123.57 291.091,122.903 294.5,121.5C 308.158,118.04 322.158,116.04 336.5,115.5C 342.045,113.978 347.712,113.312 353.5,113.5 Z M 170.5,142.5 C 221.542,142.176 272.542,142.509 323.5,143.5C 324.931,145.189 325.764,147.189 326,149.5C 326.886,158.895 326.553,168.228 325,177.5C 323.961,178.71 322.794,179.71 321.5,180.5C 304.167,180.5 286.833,180.5 269.5,180.5C 269.667,235.834 269.5,291.168 269,346.5C 268.392,348.154 267.892,349.821 267.5,351.5C 265.973,351.427 264.973,352.094 264.5,353.5C 262.901,353.232 261.568,353.566 260.5,354.5C 249.795,354.763 239.128,354.43 228.5,353.5C 225.5,352.5 223.5,350.5 222.5,347.5C 222.5,291.833 222.5,236.167 222.5,180.5C 204.833,180.5 187.167,180.5 169.5,180.5C 168.488,179.128 167.488,177.795 166.5,176.5C 165.617,167.533 165.284,158.533 165.5,149.5C 166.432,146.635 168.098,144.302 170.5,142.5 Z"/></g>
<g><path style="opacity:1" fill="#f5886b" d="M 353.5,113.5 C 347.712,113.312 342.045,113.978 336.5,115.5C 341.935,112.552 347.601,111.886 353.5,113.5 Z"/></g>
<g><path style="opacity:1" fill="#e53b12" d="M 452.5,112.5 C 452.427,114.027 453.094,115.027 454.5,115.5C 454.427,117.027 455.094,118.027 456.5,118.5C 455.432,119.434 454.099,119.768 452.5,119.5C 452.421,117.334 451.754,115.334 450.5,113.5C 450.439,111.279 451.105,110.946 452.5,112.5 Z"/></g>
<g><path style="opacity:0.502" fill="#f3a28d" d="M 452.5,112.5 C 453.906,112.973 454.573,113.973 454.5,115.5C 453.094,115.027 452.427,114.027 452.5,112.5 Z"/></g>
<g><path style="opacity:0.49" fill="#f7a691" d="M 42.5,115.5 C 42.573,117.027 41.9063,118.027 40.5,118.5C 40.427,116.973 41.0937,115.973 42.5,115.5 Z"/></g>
<g><path style="opacity:0.102" fill="#f9b7a7" d="M 69.5,104.5 C 64.2484,112.933 58.7484,121.267 53,129.5C 53.7209,126.377 55.0543,123.377 57,120.5C 60.945,114.916 65.1117,109.583 69.5,104.5 Z"/></g>
<g><path style="opacity:0.365" fill="#f7b9aa" d="M 454.5,115.5 C 455.906,115.973 456.573,116.973 456.5,118.5C 455.094,118.027 454.427,117.027 454.5,115.5 Z"/></g>
<g><path style="opacity:0.588" fill="#f7bdae" d="M 438.5,116.5 C 439.921,119.009 441.588,121.343 443.5,123.5C 442.167,123.833 442.167,124.167 443.5,124.5C 444.167,124.5 444.5,124.833 444.5,125.5C 445.338,125.842 445.672,126.508 445.5,127.5C 445.833,127.5 446.167,127.5 446.5,127.5C 446.5,128.167 446.5,128.833 446.5,129.5C 447.043,129.56 447.376,129.893 447.5,130.5C 446.757,131.182 446.091,131.849 445.5,132.5C 442.586,128.342 439.919,124.009 437.5,119.5C 437.263,118.209 437.596,117.209 438.5,116.5 Z"/></g>
<g><path style="opacity:0.392" fill="#f9b4a3" d="M 40.5,118.5 C 40.573,120.027 39.9063,121.027 38.5,121.5C 38.427,119.973 39.0937,118.973 40.5,118.5 Z"/></g>
<g><path style="opacity:0.298" fill="#f5b6a6" d="M 294.5,121.5 C 291.091,122.903 287.425,123.57 283.5,123.5C 286.909,122.097 290.575,121.43 294.5,121.5 Z"/></g>
<g><path style="opacity:1" fill="#f5967d" d="M 282.5,123.5 C 282.082,124.222 281.416,124.722 280.5,125C 277.854,125.497 275.187,125.664 272.5,125.5C 275.589,124.215 278.922,123.549 282.5,123.5 Z"/></g>
<g><path style="opacity:0.365" fill="#f6b6a6" d="M 458.5,122.5 C 459.906,122.973 460.573,123.973 460.5,125.5C 459.094,125.027 458.427,124.027 458.5,122.5 Z"/></g>
<g><path style="opacity:0.552" fill="#f49780" d="M 192.5,125.5 C 219.001,124.5 245.668,124.5 272.5,125.5C 247.667,126.317 222.667,126.317 197.5,125.5C 195.833,125.5 194.167,125.5 192.5,125.5 Z"/></g>
<g><path style="opacity:0.537" fill="#f8a48e" d="M 364.5,123.5 C 365.906,123.973 366.573,124.973 366.5,126.5C 365.094,126.027 364.427,125.027 364.5,123.5 Z"/></g>
<g><path style="opacity:1" fill="#f37c5c" d="M 192.5,125.5 C 194.167,125.5 195.833,125.5 197.5,125.5C 186.95,126.666 176.283,128 165.5,129.5C 174.169,126.78 183.169,125.446 192.5,125.5 Z"/></g>
<g><path style="opacity:1" fill="#f89479" d="M 367.5,128.5 C 369.065,130.509 370.065,132.843 370.5,135.5C 368.166,133.824 367.166,131.491 367.5,128.5 Z"/></g>
<g><path style="opacity:0.192" fill="#fabbab" d="M 450.5,136.5 C 452.625,139.088 453.958,142.088 454.5,145.5C 450.346,142.999 447.679,139.332 446.5,134.5C 447.75,134.423 448.583,133.756 449,132.5C 449.791,133.745 450.291,135.078 450.5,136.5 Z"/></g>
<g><path style="opacity:0.4" fill="#f5ae9d" d="M 170.5,142.5 C 220.998,141.335 271.665,141.168 322.5,142C 323.056,142.383 323.389,142.883 323.5,143.5C 272.542,142.509 221.542,142.176 170.5,142.5 Z"/></g>
<g><path style="opacity:1" fill="#f2704d" d="M 456.5,118.5 C 457.674,119.514 458.34,120.847 458.5,122.5C 458.427,124.027 459.094,125.027 460.5,125.5C 467.092,135.354 472.092,146.021 475.5,157.5C 475.768,159.099 475.434,160.432 474.5,161.5C 473.89,160.609 473.557,159.609 473.5,158.5C 472,154.827 470,151.494 467.5,148.5C 462.742,138.65 457.742,128.983 452.5,119.5C 454.099,119.768 455.432,119.434 456.5,118.5 Z"/></g>
<g><path style="opacity:1" fill="#f48162" d="M 138.5,139.5 C 138.141,141.485 137.308,142.151 136,141.5C 133.508,143.497 130.675,144.497 127.5,144.5C 130.836,142.269 134.503,140.603 138.5,139.5 Z"/></g>
<g><path style="opacity:0.216" fill="#fbc3b6" d="M 456.5,140.5 C 457.906,140.973 458.573,141.973 458.5,143.5C 457.094,143.027 456.427,142.027 456.5,140.5 Z"/></g>
<g><path style="opacity:1" fill="#f36d4a" d="M 445.5,121.5 C 446.458,121.953 447.292,122.619 448,123.5C 450.755,129.306 453.589,134.972 456.5,140.5C 456.427,142.027 457.094,143.027 458.5,143.5C 463.688,154.065 467.688,165.065 470.5,176.5C 468.367,171.559 466.2,166.559 464,161.5C 462.961,162.244 462.461,163.244 462.5,164.5C 459.853,158.243 457.186,151.91 454.5,145.5C 453.958,142.088 452.625,139.088 450.5,136.5C 450.291,135.078 449.791,133.745 449,132.5C 448.583,133.756 447.75,134.423 446.5,134.5C 445.662,134.158 445.328,133.492 445.5,132.5C 446.091,131.849 446.757,131.182 447.5,130.5C 447.376,129.893 447.043,129.56 446.5,129.5C 446.5,128.833 446.5,128.167 446.5,127.5C 447.097,127.265 447.43,126.765 447.5,126C 446.586,124.594 445.92,123.094 445.5,121.5 Z"/></g>
<g><path style="opacity:0.4" fill="#f9c3b6" d="M 467.5,148.5 C 470,151.494 472,154.827 473.5,158.5C 470.524,155.904 468.524,152.57 467.5,148.5 Z"/></g>
<g><path style="opacity:0.299" fill="#f9c0b2" d="M 165.5,149.5 C 165.284,158.533 165.617,167.533 166.5,176.5C 165.732,175.737 165.232,174.737 165,173.5C 164.177,165.323 164.344,157.323 165.5,149.5 Z"/></g>
<g><path style="opacity:1" fill="#f88564" d="M 21.5,156.5 C 21.9227,158.781 21.256,160.448 19.5,161.5C 19.4021,159.447 20.0687,157.78 21.5,156.5 Z"/></g>
<g><path style="opacity:0.765" fill="#fbbeaf" d="M 475.5,157.5 C 476.458,159.302 477.125,161.302 477.5,163.5C 476.604,162.494 475.938,162.494 475.5,163.5C 474.662,163.158 474.328,162.492 474.5,161.5C 475.434,160.432 475.768,159.099 475.5,157.5 Z"/></g>
<g><path style="opacity:1" fill="#f78263" d="M 477.5,163.5 C 478.736,165.649 479.736,167.982 480.5,170.5C 478.797,169.34 478.131,170.007 478.5,172.5C 477.331,169.659 476.331,166.659 475.5,163.5C 475.938,162.494 476.604,162.494 477.5,163.5 Z"/></g>
<g><path style="opacity:1" fill="#f57552" d="M 480.5,170.5 C 481.774,172.993 482.44,175.659 482.5,178.5C 482.851,180.869 483.018,183.203 483,185.5C 482.722,184.584 482.222,183.918 481.5,183.5C 480.303,179.905 479.303,176.239 478.5,172.5C 478.131,170.007 478.797,169.34 480.5,170.5 Z"/></g>
<g><path style="opacity:0.388" fill="#f6bdaf" d="M 47.5,169.5 C 47.5979,171.553 46.9313,173.22 45.5,174.5C 45.4021,172.447 46.0687,170.78 47.5,169.5 Z"/></g>
<g><path style="opacity:0.424" fill="#f9b4a2" d="M 465.5,173.5 C 467.806,177.085 469.139,181.085 469.5,185.5C 467.595,181.784 466.261,177.784 465.5,173.5 Z"/></g>
<g><path style="opacity:0.804" fill="#f7a28c" d="M 470.5,176.5 C 471.738,178.214 472.405,180.214 472.5,182.5C 470.926,180.898 470.259,178.898 470.5,176.5 Z"/></g>
<g><path style="opacity:1" fill="#f58366" d="M 14.5,177.5 C 14.5905,180.152 13.9238,182.485 12.5,184.5C 12.4095,181.848 13.0762,179.515 14.5,177.5 Z"/></g>
<g><path style="opacity:0.635" fill="#f8a793" d="M 43.5,180.5 C 43.2785,183.067 42.6118,185.401 41.5,187.5C 41.1706,184.772 41.8372,182.438 43.5,180.5 Z"/></g>
<g><path style="opacity:0.988" fill="#f57f61" d="M 482.5,178.5 C 483.738,180.214 484.405,182.214 484.5,184.5C 484.66,186.199 484.494,187.866 484,189.5C 483.722,188.584 483.222,187.918 482.5,187.5C 481.766,186.292 481.433,184.959 481.5,183.5C 482.222,183.918 482.722,184.584 483,185.5C 483.018,183.203 482.851,180.869 482.5,178.5 Z"/></g>
<g><path style="opacity:1" fill="#ee522a" d="M 470.5,176.5 C 470.259,178.898 470.926,180.898 472.5,182.5C 472.5,182.833 472.5,183.167 472.5,183.5C 472.538,186.951 473.205,190.284 474.5,193.5C 474.333,194.167 474.167,194.833 474,195.5C 473.722,194.584 473.222,193.918 472.5,193.5C 472.5,193.167 472.5,192.833 472.5,192.5C 472.008,190.181 471.008,188.181 469.5,186.5C 469.5,186.167 469.5,185.833 469.5,185.5C 469.139,181.085 467.806,177.085 465.5,173.5C 463.928,170.785 462.928,167.785 462.5,164.5C 462.461,163.244 462.961,162.244 464,161.5C 466.2,166.559 468.367,171.559 470.5,176.5 Z"/></g>
<g><path style="opacity:0.933" fill="#fbac97" d="M 472.5,183.5 C 474.591,188.191 475.924,193.191 476.5,198.5C 475.778,198.082 475.278,197.416 475,196.5C 474.506,198.134 474.34,199.801 474.5,201.5C 473.469,199.039 472.802,196.373 472.5,193.5C 473.222,193.918 473.722,194.584 474,195.5C 474.167,194.833 474.333,194.167 474.5,193.5C 473.205,190.284 472.538,186.951 472.5,183.5 Z"/></g>
<g><path style="opacity:0.616" fill="#f8a893" d="M 469.5,186.5 C 471.008,188.181 472.008,190.181 472.5,192.5C 470.461,191.089 469.461,189.089 469.5,186.5 Z"/></g>
<g><path style="opacity:0.686" fill="#f8a792" d="M 41.5,187.5 C 41.2785,190.067 40.6118,192.401 39.5,194.5C 39.1706,191.772 39.8372,189.438 41.5,187.5 Z"/></g>
<g><path style="opacity:0.737" fill="#f9b8a8" d="M 484.5,184.5 C 487.045,190.225 488.045,196.225 487.5,202.5C 485.518,197.616 483.851,192.616 482.5,187.5C 483.222,187.918 483.722,188.584 484,189.5C 484.494,187.866 484.66,186.199 484.5,184.5 Z"/></g>
<g><path style="opacity:0.925" fill="#f99377" d="M 39.5,195.5 C 38.866,199.373 37.866,203.039 36.5,206.5C 36.3367,204.143 36.5034,201.81 37,199.5C 37.2004,197.68 38.0337,196.347 39.5,195.5 Z"/></g>
<g><path style="opacity:1" fill="#f2896e" d="M 10.5,192.5 C 10.665,195.85 10.4983,199.183 10,202.5C 9.84421,205.191 9.01088,207.524 7.5,209.5C 8.19587,203.651 9.19587,197.984 10.5,192.5 Z"/></g>
<g><path style="opacity:0.271" fill="#fbcbbf" d="M 120.5,195.5 C 122.969,202.837 123.969,210.504 123.5,218.5C 122.56,210.965 121.56,203.299 120.5,195.5 Z"/></g>
<g><path style="opacity:0.896" fill="#f37655" d="M 321.5,180.5 C 304.675,181.497 287.675,181.83 270.5,181.5C 270.667,237.168 270.5,292.834 270,348.5C 269.623,349.942 268.79,350.942 267.5,351.5C 267.892,349.821 268.392,348.154 269,346.5C 269.5,291.168 269.667,235.834 269.5,180.5C 286.833,180.5 304.167,180.5 321.5,180.5 Z"/></g>
<g><path style="opacity:1" fill="#f88869" d="M 476.5,198.5 C 477.369,200.717 477.702,203.05 477.5,205.5C 477.802,208.059 477.468,210.393 476.5,212.5C 475.313,209.054 474.646,205.387 474.5,201.5C 474.34,199.801 474.506,198.134 475,196.5C 475.278,197.416 475.778,198.082 476.5,198.5 Z"/></g>
<g><path style="opacity:0.933" fill="#fcb3a0" d="M 477.5,205.5 C 478.795,209.267 479.461,213.267 479.5,217.5C 478.71,216.391 478.21,215.058 478,213.5C 477.505,215.473 477.338,217.473 477.5,219.5C 476.532,217.393 476.198,215.059 476.5,212.5C 477.468,210.393 477.802,208.059 477.5,205.5 Z"/></g>
<g><path style="opacity:0.847" fill="#f47c5d" d="M 479.5,217.5 C 479.5,219.833 479.5,222.167 479.5,224.5C 479.824,231.354 479.491,238.021 478.5,244.5C 478.309,236.16 477.976,227.826 477.5,219.5C 477.338,217.473 477.505,215.473 478,213.5C 478.21,215.058 478.71,216.391 479.5,217.5 Z"/></g>
<g><path style="opacity:0.22" fill="#fac1b3" d="M 123.5,218.5 C 124.5,218.5 125.5,218.5 126.5,218.5C 126.517,220.565 126.85,222.565 127.5,224.5C 126.165,222.547 124.832,220.547 123.5,218.5 Z"/></g>
<g><path style="opacity:0.361" fill="#fad2c8" d="M 479.5,224.5 C 480.493,232.65 480.826,240.983 480.5,249.5C 478.787,248.365 478.12,246.698 478.5,244.5C 479.491,238.021 479.824,231.354 479.5,224.5 Z"/></g>
<g><path style="opacity:0.353" fill="#f7b4a3" d="M 4.5,230.5 C 5.45988,231.283 6.12655,232.45 6.5,234C 6.47196,235.07 6.13863,235.903 5.5,236.5C 5.08049,234.906 4.41382,233.406 3.5,232C 3.56993,231.235 3.90326,230.735 4.5,230.5 Z"/></g>
<g><path style="opacity:0.75" fill="#f48668" d="M 169.5,180.5 C 187.167,180.5 204.833,180.5 222.5,180.5C 222.5,236.167 222.5,291.833 222.5,347.5C 221.501,292.336 221.168,237.003 221.5,181.5C 203.992,181.83 186.659,181.497 169.5,180.5 Z"/></g>
<g><path style="opacity:0.156" fill="#fbd6cd" d="M 5.5,238.5 C 4.88217,245.817 4.54884,253.151 4.5,260.5C 3.14779,253.11 3.48113,245.777 5.5,238.5 Z"/></g>
<g><path style="opacity:0.494" fill="#fabbac" d="M 480.5,249.5 C 481.496,249.414 482.329,249.748 483,250.5C 483.497,252.81 483.663,255.143 483.5,257.5C 482.855,263.883 481.855,270.216 480.5,276.5C 481.338,267.47 481.338,258.47 480.5,249.5 Z"/></g>
<g><path style="opacity:0.231" fill="#f9bbac" d="M 4.5,261.5 C 5.53101,263.961 6.19767,266.627 6.5,269.5C 4.77733,267.22 4.11066,264.553 4.5,261.5 Z"/></g>
<g><path style="opacity:0.89" fill="#f78e72" d="M 130.5,258.5 C 132.281,261.183 132.781,264.183 132,267.5C 131.184,268.823 130.017,269.489 128.5,269.5C 129.685,268.143 130.685,266.643 131.5,265C 130.713,262.901 130.38,260.734 130.5,258.5 Z"/></g>
<g><path style="opacity:0.392" fill="#fab8a7" d="M 126.5,270.5 C 126.573,272.027 125.906,273.027 124.5,273.5C 124.427,271.973 125.094,270.973 126.5,270.5 Z"/></g>
<g><path style="opacity:0.2" fill="#fabbab" d="M 124.5,273.5 C 123.838,277.466 123.505,281.466 123.5,285.5C 122.167,285.5 120.833,285.5 119.5,285.5C 120.209,284.596 121.209,284.263 122.5,284.5C 122.116,280.511 122.783,276.845 124.5,273.5 Z"/></g>
<g><path style="opacity:0.482" fill="#f8b8a8" d="M 6.5,280.5 C 8.37528,285.89 9.37528,291.556 9.5,297.5C 7.62472,292.11 6.62472,286.444 6.5,280.5 Z"/></g>
<g><path style="opacity:1" fill="#f07f62" d="M 119.5,285.5 C 119.724,291.739 119.057,297.739 117.5,303.5C 117.652,297.301 118.318,291.301 119.5,285.5 Z"/></g>
<g><path style="opacity:1" fill="#f99276" d="M 482.5,291.5 C 482.461,295.733 481.795,299.733 480.5,303.5C 480.083,299.183 480.75,295.183 482.5,291.5 Z"/></g>
<g><path style="opacity:0.827" fill="#f7987f" d="M 9.5,298.5 C 11.1628,300.438 11.8294,302.772 11.5,305.5C 10.3882,303.401 9.72148,301.067 9.5,298.5 Z"/></g>
<g><path style="opacity:0.733" fill="#f69b84" d="M 38.5,300.5 C 39.9238,302.515 40.5905,304.848 40.5,307.5C 39.0762,305.485 38.4095,303.152 38.5,300.5 Z"/></g>
<g><path style="opacity:0.984" fill="#f9967b" d="M 11.5,306.5 C 12.1174,306.611 12.6174,306.944 13,307.5C 13.4955,309.473 13.6621,311.473 13.5,313.5C 12.3882,311.401 11.7215,309.067 11.5,306.5 Z"/></g>
<g><path style="opacity:0.812" fill="#f8a994" d="M 40.5,307.5 C 41.9238,309.515 42.5905,311.848 42.5,314.5C 41.0762,312.485 40.4095,310.152 40.5,307.5 Z"/></g>
<g><path style="opacity:0.857" fill="#fa967b" d="M 374.5,263.5 C 374.697,285.179 374.364,306.846 373.5,328.5C 373.167,328.5 372.833,328.5 372.5,328.5C 372.634,306.658 373.301,284.991 374.5,263.5 Z"/></g>
<g><path style="opacity:1" fill="#fa9174" d="M 13.5,313.5 C 15.2798,314.99 15.9465,316.99 15.5,319.5C 14.2616,317.786 13.595,315.786 13.5,313.5 Z"/></g>
<g><path style="opacity:0.027" fill="#fccec3" d="M 478.5,313.5 C 478.706,316.495 478.04,319.162 476.5,321.5C 476.565,318.572 477.232,315.905 478.5,313.5 Z"/></g>
<g><path style="opacity:1" fill="#f88f72" d="M 42.5,314.5 C 43.7384,316.214 44.405,318.214 44.5,320.5C 42.7202,319.01 42.0535,317.01 42.5,314.5 Z"/></g>
<g><path style="opacity:0.816" fill="#f8a28c" d="M 473.5,318.5 C 473.59,321.152 472.924,323.485 471.5,325.5C 471.41,322.848 472.076,320.515 473.5,318.5 Z"/></g>
<g><path style="opacity:0.078" fill="#fccabe" d="M 476.5,321.5 C 476.15,326.54 474.816,331.206 472.5,335.5C 473.259,330.57 474.592,325.903 476.5,321.5 Z"/></g>
<g><path style="opacity:0.886" fill="#f79b83" d="M 471.5,325.5 C 471.139,329.915 469.806,333.915 467.5,337.5C 468.261,333.216 469.595,329.216 471.5,325.5 Z"/></g>
<g><path style="opacity:0.624" fill="#f8a38d" d="M 19.5,332.5 C 22.0838,333.048 23.0838,334.715 22.5,337.5C 21.6923,335.78 20.6923,334.113 19.5,332.5 Z"/></g>
<g><path style="opacity:0.098" fill="#fac5b7" d="M 372.5,328.5 C 372.833,328.5 373.167,328.5 373.5,328.5C 373.515,341.352 372.015,354.019 369,366.5C 368.617,367.056 368.117,367.389 367.5,367.5C 370.698,354.721 372.365,341.721 372.5,328.5 Z"/></g>
<g><path style="opacity:0.545" fill="#f9af9d" d="M 472.5,335.5 C 471.935,339.537 470.601,343.203 468.5,346.5C 469.065,342.463 470.399,338.797 472.5,335.5 Z"/></g>
<g><path style="opacity:0.314" fill="#fabbab" d="M 22.5,337.5 C 24.2927,339.426 25.2927,341.759 25.5,344.5C 23.7073,342.574 22.7073,340.241 22.5,337.5 Z"/></g>
<g><path style="opacity:1" fill="#f77f5e" d="M 467.5,337.5 C 467.421,338.93 467.754,340.264 468.5,341.5C 467.606,341.517 466.606,341.851 465.5,342.5C 465.402,340.447 466.069,338.78 467.5,337.5 Z"/></g>
<g><path style="opacity:1" fill="#f05c35" d="M 483.5,257.5 C 484.877,268.901 484.544,280.235 482.5,291.5C 480.75,295.183 480.083,299.183 480.5,303.5C 480.46,306.988 479.793,310.321 478.5,313.5C 477.232,315.905 476.565,318.572 476.5,321.5C 474.592,325.903 473.259,330.57 472.5,335.5C 470.399,338.797 469.065,342.463 468.5,346.5C 465.784,354.268 462.784,361.934 459.5,369.5C 459.167,369.5 458.833,369.5 458.5,369.5C 457.957,369.56 457.624,369.893 457.5,370.5C 458.243,371.182 458.909,371.849 459.5,372.5C 458.36,374.78 457.193,377.114 456,379.5C 447.894,388.938 440.561,398.938 434,409.5C 429.631,414.037 425.131,418.37 420.5,422.5C 418.246,423.124 416.579,424.457 415.5,426.5C 413.167,425.167 410.833,423.833 408.5,422.5C 410.194,420.139 412.194,418.139 414.5,416.5C 414.5,416.167 414.5,415.833 414.5,415.5C 415.167,415.5 415.5,415.167 415.5,414.5C 416.167,414.5 416.5,414.167 416.5,413.5C 417.167,413.5 417.5,413.167 417.5,412.5C 418.167,412.5 418.5,412.167 418.5,411.5C 419.5,410.833 420.5,410.167 421.5,409.5C 424.243,407.761 426.243,405.427 427.5,402.5C 428.5,400.833 429.833,399.5 431.5,398.5C 433.914,397.089 435.581,395.089 436.5,392.5C 436.738,390.596 437.738,389.262 439.5,388.5C 440.906,388.027 441.573,387.027 441.5,385.5C 444.766,380.63 447.766,375.63 450.5,370.5C 451.906,370.027 452.573,369.027 452.5,367.5C 452.328,366.508 452.662,365.842 453.5,365.5C 454.906,365.027 455.573,364.027 455.5,362.5C 455.328,361.508 455.662,360.842 456.5,360.5C 457.906,360.027 458.573,359.027 458.5,357.5C 460.597,352.311 462.93,347.311 465.5,342.5C 466.606,341.851 467.606,341.517 468.5,341.5C 467.754,340.264 467.421,338.93 467.5,337.5C 469.806,333.915 471.139,329.915 471.5,325.5C 472.924,323.485 473.59,321.152 473.5,318.5C 476.865,304.673 479.199,290.673 480.5,276.5C 481.855,270.216 482.855,263.883 483.5,257.5 Z"/></g>
<g><path style="opacity:0.831" fill="#f8987f" d="M 267.5,351.5 C 267.027,352.906 266.027,353.573 264.5,353.5C 264.973,352.094 265.973,351.427 267.5,351.5 Z"/></g>
<g><path style="opacity:0.132" fill="#fbdad2" d="M 228.5,353.5 C 239.128,354.43 249.795,354.763 260.5,354.5C 250.675,355.658 240.675,355.825 230.5,355C 229.584,354.722 228.918,354.222 228.5,353.5 Z"/></g>
<g><path style="opacity:0.376" fill="#f9b6a5" d="M 59.5,355.5 C 60.9063,355.973 61.573,356.973 61.5,358.5C 60.0937,358.027 59.427,357.027 59.5,355.5 Z"/></g>
<g><path style="opacity:0.427" fill="#fab29f" d="M 458.5,357.5 C 458.573,359.027 457.906,360.027 456.5,360.5C 456.427,358.973 457.094,357.973 458.5,357.5 Z"/></g>
<g><path style="opacity:0.416" fill="#fabaaa" d="M 455.5,362.5 C 455.573,364.027 454.906,365.027 453.5,365.5C 453.427,363.973 454.094,362.973 455.5,362.5 Z"/></g>
<g><path style="opacity:0.573" fill="#faa28a" d="M 66.5,367.5 C 67.9063,367.973 68.573,368.973 68.5,370.5C 67.0937,370.027 66.427,369.027 66.5,367.5 Z"/></g>
<g><path style="opacity:0.322" fill="#fabcad" d="M 452.5,367.5 C 452.573,369.027 451.906,370.027 450.5,370.5C 450.427,368.973 451.094,367.973 452.5,367.5 Z"/></g>
<g><path style="opacity:0.596" fill="#f7a692" d="M 458.5,369.5 C 458.833,370.833 459.167,370.833 459.5,369.5C 460.833,370.5 460.833,371.5 459.5,372.5C 458.909,371.849 458.243,371.182 457.5,370.5C 457.624,369.893 457.957,369.56 458.5,369.5 Z"/></g>
<g><path style="opacity:0.897" fill="#f47b5b" d="M 137.5,370.5 C 146.492,371.052 155.492,371.552 164.5,372C 165.416,372.278 166.082,372.778 166.5,373.5C 156.61,373.198 146.943,372.198 137.5,370.5 Z"/></g>
<g><path style="opacity:0.659" fill="#fba28a" d="M 38.5,370.5 C 40.4456,371.035 41.4456,372.368 41.5,374.5C 40.0256,373.564 39.0256,372.23 38.5,370.5 Z"/></g>
<g><path style="opacity:0.576" fill="#f9a38e" d="M 68.5,370.5 C 69.9063,370.973 70.573,371.973 70.5,373.5C 69.0937,373.027 68.427,372.027 68.5,370.5 Z"/></g>
<g><path style="opacity:1" fill="#f16742" d="M 360.5,371.5 C 356.151,374.341 351.484,376.674 346.5,378.5C 346.167,378.5 345.833,378.5 345.5,378.5C 346.122,376.665 347.456,375.498 349.5,375C 349.043,374.586 348.709,374.086 348.5,373.5C 352.426,372.368 356.426,371.701 360.5,371.5 Z"/></g>
<g><path style="opacity:0.239" fill="#f6bdaf" d="M 180.5,376.5 C 180.306,380.005 179.306,380.338 177.5,377.5C 178.609,377.443 179.609,377.11 180.5,376.5 Z"/></g>
<g><path style="opacity:0.675" fill="#f29f8a" d="M 183.5,380.5 C 182.883,380.611 182.383,380.944 182,381.5C 181.802,379.618 181.302,377.952 180.5,376.5C 180.369,375.624 180.702,374.957 181.5,374.5C 182.295,376.495 182.961,378.495 183.5,380.5 Z"/></g>
<g><path style="opacity:0.349" fill="#f7bdae" d="M 198.5,381.5 C 198.539,382.756 198.039,383.756 197,384.5C 196.257,381.808 195.09,379.475 193.5,377.5C 193.281,376.325 193.614,375.325 194.5,374.5C 196.071,376.882 196.904,379.549 197,382.5C 197.383,381.944 197.883,381.611 198.5,381.5 Z"/></g>
<g><path style="opacity:0.027" fill="#f6c8bd" d="M 345.5,378.5 C 345.833,378.5 346.167,378.5 346.5,378.5C 344.485,379.924 342.152,380.59 339.5,380.5C 341.214,379.262 343.214,378.595 345.5,378.5 Z"/></g>
<g><path style="opacity:0.278" fill="#f8c5b8" d="M 192.5,380.5 C 193.434,381.568 193.768,382.901 193.5,384.5C 192.5,384.5 191.5,384.5 190.5,384.5C 191.021,381.364 190.021,379.03 187.5,377.5C 188.241,374.587 188.741,371.587 189,368.5C 190.275,373.081 191.275,377.748 192,382.5C 192.464,381.906 192.631,381.239 192.5,380.5 Z"/></g>
<g><path style="opacity:0.157" fill="#fbc6b9" d="M 220.5,383.5 C 219.833,383.5 219.167,383.5 218.5,383.5C 219.167,380.833 219.833,380.833 220.5,383.5 Z"/></g>
<g><path style="opacity:0.102" fill="#f7ac99" d="M 187.5,378.5 C 187.5,380.5 187.5,382.5 187.5,384.5C 186.209,384.737 185.209,384.404 184.5,383.5C 186.028,382.198 187.028,380.531 187.5,378.5 Z"/></g>
<g><path style="opacity:0.424" fill="#f6b6a5" d="M 204.5,382.5 C 206.117,383.038 207.784,383.371 209.5,383.5C 207.545,384.93 205.879,384.597 204.5,382.5 Z"/></g>
<g><path style="opacity:0.549" fill="#f8a995" d="M 213.5,382.5 C 215.027,382.427 216.027,383.094 216.5,384.5C 214.973,384.573 213.973,383.906 213.5,382.5 Z"/></g>
<g><path style="opacity:0.855" fill="#f9a38d" d="M 80.5,386.5 C 82.2624,387.262 83.2624,388.596 83.5,390.5C 81.7376,389.738 80.7376,388.404 80.5,386.5 Z"/></g>
<g><path style="opacity:0.498" fill="#fab19e" d="M 441.5,385.5 C 441.573,387.027 440.906,388.027 439.5,388.5C 439.427,386.973 440.094,385.973 441.5,385.5 Z"/></g>
<g><path style="opacity:0.729" fill="#faa48e" d="M 436.5,392.5 C 435.581,395.089 433.914,397.089 431.5,398.5C 432.419,395.911 434.086,393.911 436.5,392.5 Z"/></g>
<g><path style="opacity:0.914" fill="#fcb19e" d="M 88.5,395.5 C 92.8333,399.167 96.8333,403.167 100.5,407.5C 95.5,404.5 91.5,400.5 88.5,395.5 Z"/></g>
<g><path style="opacity:0.463" fill="#fbbcac" d="M 427.5,402.5 C 426.243,405.427 424.243,407.761 421.5,409.5C 422.757,406.573 424.757,404.239 427.5,402.5 Z"/></g>
<g><path style="opacity:0.545" fill="#fbcbbf" d="M 418.5,411.5 C 417.833,411.5 417.5,411.833 417.5,412.5C 416.833,412.5 416.5,412.833 416.5,413.5C 415.833,413.5 415.5,413.833 415.5,414.5C 414.833,414.5 414.5,414.833 414.5,415.5C 414.167,415.5 413.833,415.5 413.5,415.5C 413.158,414.662 412.492,414.328 411.5,414.5C 413.502,411.666 416.002,409.333 419,407.5C 419.195,408.819 419.028,410.153 418.5,411.5 Z"/></g>
<g><path style="opacity:0.647" fill="#fcb6a5" d="M 74.5,418.5 C 76.5,418.5 77.5,419.5 77.5,421.5C 76.1667,420.833 75.1667,419.833 74.5,418.5 Z"/></g>
<g><path style="opacity:0.149" fill="#fce6e1" d="M 413.5,415.5 C 413.5,416.167 413.833,416.5 414.5,416.5C 412.194,418.139 410.194,420.139 408.5,422.5C 405.833,424.833 403.167,427.167 400.5,429.5C 400.5,429.167 400.5,428.833 400.5,428.5C 404.5,423.833 408.833,419.5 413.5,415.5 Z"/></g>
<g><path style="opacity:1" fill="#f7805f" d="M 420.5,422.5 C 419.567,425.37 417.9,427.704 415.5,429.5C 415.5,428.5 415.5,427.5 415.5,426.5C 416.579,424.457 418.246,423.124 420.5,422.5 Z"/></g>
<g><path style="opacity:0.855" fill="#f9a48e" d="M 83.5,427.5 C 85.4044,427.738 86.7377,428.738 87.5,430.5C 85.5956,430.262 84.2623,429.262 83.5,427.5 Z"/></g>
<g><path style="opacity:0.969" fill="#f37959" d="M 411.5,414.5 C 412.492,414.328 413.158,414.662 413.5,415.5C 408.833,419.5 404.5,423.833 400.5,428.5C 399.833,428.5 399.5,428.833 399.5,429.5C 399.167,429.5 398.833,429.5 398.5,429.5C 390.759,435.916 382.759,441.916 374.5,447.5C 365.418,454.377 355.418,459.71 344.5,463.5C 346.5,462.167 348.5,460.833 350.5,459.5C 351.167,458.833 351.833,458.167 352.5,457.5C 353.167,457.5 353.5,457.167 353.5,456.5C 354.167,456.5 354.5,456.167 354.5,455.5C 355.391,454.89 356.391,454.557 357.5,454.5C 359.027,454.573 360.027,453.906 360.5,452.5C 366.882,448.137 373.549,444.137 380.5,440.5C 382.027,440.573 383.027,439.906 383.5,438.5C 391.423,432.914 398.757,426.581 405.5,419.5C 407.909,418.299 409.909,416.633 411.5,414.5 Z"/></g>
<g><path style="opacity:0.918" fill="#fa9d84" d="M 91.5,434.5 C 93.4044,434.738 94.7377,435.738 95.5,437.5C 93.5956,437.262 92.2623,436.262 91.5,434.5 Z"/></g>
<g><path style="opacity:1" fill="#fa9c83" d="M 139.5,438.5 C 141.23,439.026 142.564,440.026 143.5,441.5C 141.368,441.446 140.035,440.446 139.5,438.5 Z"/></g>
<g><path style="opacity:0.518" fill="#fac2b5" d="M 383.5,438.5 C 383.027,439.906 382.027,440.573 380.5,440.5C 380.973,439.094 381.973,438.427 383.5,438.5 Z"/></g>
<g><path style="opacity:0.851" fill="#f68668" d="M 391.5,423.5 C 393.379,423.393 393.712,423.893 392.5,425C 381.375,433.453 369.708,441.119 357.5,448C 358.416,448.278 359.082,448.778 359.5,449.5C 356.833,451.167 354.167,452.833 351.5,454.5C 351.167,454.5 350.833,454.5 350.5,454.5C 350.343,453.127 350.51,451.793 351,450.5C 352.364,451.258 353.531,450.758 354.5,449C 353.906,448.536 353.239,448.369 352.5,448.5C 365.973,440.929 378.973,432.595 391.5,423.5 Z"/></g>
<g><path style="opacity:0.2" fill="#fac6ba" d="M 398.5,429.5 C 398.5,430.167 398.833,430.5 399.5,430.5C 391.993,437.333 383.66,442.999 374.5,447.5C 382.759,441.916 390.759,435.916 398.5,429.5 Z"/></g>
<g><path style="opacity:0.478" fill="#f5a08a" d="M 101.5,442.5 C 103.749,443.08 105.415,444.413 106.5,446.5C 104.251,445.92 102.585,444.587 101.5,442.5 Z"/></g>
<g><path style="opacity:0.42" fill="#fabbab" d="M 405.5,419.5 C 404.883,419.389 404.383,419.056 404,418.5C 390.767,431.194 375.934,441.527 359.5,449.5C 359.082,448.778 358.416,448.278 357.5,448C 369.708,441.119 381.375,433.453 392.5,425C 393.712,423.893 393.379,423.393 391.5,423.5C 394.122,421.218 396.788,418.885 399.5,416.5C 399.911,417.262 400.077,418.262 400,419.5C 401.378,417.787 403.045,416.453 405,415.5C 405.49,416.793 405.657,418.127 405.5,419.5 Z"/></g>
<g><path style="opacity:0.608" fill="#f39a83" d="M 106.5,446.5 C 108.027,446.427 109.027,447.094 109.5,448.5C 107.973,448.573 106.973,447.906 106.5,446.5 Z"/></g>
<g><path style="opacity:0.631" fill="#f49a82" d="M 113.5,451.5 C 115.027,451.427 116.027,452.094 116.5,453.5C 114.973,453.573 113.973,452.906 113.5,451.5 Z"/></g>
<g><path style="opacity:0.671" fill="#f7ab97" d="M 360.5,452.5 C 360.027,453.906 359.027,454.573 357.5,454.5C 357.973,453.094 358.973,452.427 360.5,452.5 Z"/></g>
<g><path style="opacity:0.639" fill="#f79b83" d="M 116.5,453.5 C 118.027,453.427 119.027,454.094 119.5,455.5C 117.973,455.573 116.973,454.906 116.5,453.5 Z"/></g>
<g><path style="opacity:0.259" fill="#fbc9bc" d="M 339.5,454.5 C 338.22,455.931 336.553,456.598 334.5,456.5C 335.78,455.069 337.447,454.402 339.5,454.5 Z"/></g>
<g><path style="opacity:0.58" fill="#f9a088" d="M 119.5,455.5 C 121.027,455.427 122.027,456.094 122.5,457.5C 120.973,457.573 119.973,456.906 119.5,455.5 Z"/></g>
<g><path style="opacity:1" fill="#ef5630" d="M 352.5,448.5 C 353.239,448.369 353.906,448.536 354.5,449C 353.531,450.758 352.364,451.258 351,450.5C 350.51,451.793 350.343,453.127 350.5,454.5C 349.833,454.5 349.5,454.833 349.5,455.5C 348.833,455.5 348.167,455.5 347.5,455.5C 346.508,455.328 345.842,455.662 345.5,456.5C 344.833,456.5 344.5,456.833 344.5,457.5C 343.508,457.328 342.842,457.662 342.5,458.5C 341.833,458.5 341.167,458.5 340.5,458.5C 339.833,458.5 339.5,458.833 339.5,459.5C 338.508,459.328 337.842,459.662 337.5,460.5C 336.833,460.5 336.167,460.5 335.5,460.5C 333.447,460.402 331.78,461.069 330.5,462.5C 327.458,462.733 324.792,463.733 322.5,465.5C 321.209,465.263 320.209,465.596 319.5,466.5C 317.901,466.232 316.568,466.566 315.5,467.5C 315.5,467.833 315.5,468.167 315.5,468.5C 313.901,468.232 312.568,468.566 311.5,469.5C 309.901,469.232 308.568,469.566 307.5,470.5C 305.901,470.232 304.568,470.566 303.5,471.5C 302.5,471.5 301.5,471.5 300.5,471.5C 299.508,471.328 298.842,471.662 298.5,472.5C 297.209,472.263 296.209,472.596 295.5,473.5C 294.833,473.5 294.167,473.5 293.5,473.5C 292.508,473.328 291.842,473.662 291.5,474.5C 291.167,474.5 290.833,474.5 290.5,474.5C 289.5,474.5 288.5,474.5 287.5,474.5C 288.949,472.836 290.949,472.002 293.5,472C 292.663,470.989 292.33,469.822 292.5,468.5C 291.5,468.5 290.5,468.5 289.5,468.5C 297.982,466.215 306.649,464.215 315.5,462.5C 321.249,460.312 327.249,458.812 333.5,458C 334.056,457.617 334.389,457.117 334.5,456.5C 336.553,456.598 338.22,455.931 339.5,454.5C 343.645,452.264 347.978,450.264 352.5,448.5 Z"/></g>
<g><path style="opacity:0.596" fill="#f69981" d="M 124.5,458.5 C 126.027,458.427 127.027,459.094 127.5,460.5C 125.973,460.573 124.973,459.906 124.5,458.5 Z"/></g>
<g><path style="opacity:0.443" fill="#f8b2a2" d="M 181.5,458.5 C 183.553,458.402 185.22,459.069 186.5,460.5C 184.447,460.598 182.78,459.931 181.5,458.5 Z"/></g>
<g><path style="opacity:0.722" fill="#f9a48d" d="M 334.5,456.5 C 334.389,457.117 334.056,457.617 333.5,458C 327.249,458.812 321.249,460.312 315.5,462.5C 321.204,458.934 327.537,456.934 334.5,456.5 Z"/></g>
<g><path style="opacity:0.38" fill="#f8a792" d="M 351.5,454.5 C 352.791,454.263 353.791,454.596 354.5,455.5C 353.833,455.5 353.5,455.833 353.5,456.5C 353.5,457.167 353.167,457.5 352.5,457.5C 351.833,458.167 351.167,458.833 350.5,459.5C 347.088,460.042 344.088,461.375 341.5,463.5C 338.819,463.462 336.319,464.129 334,465.5C 333.5,465.333 333,465.167 332.5,465C 335.097,464.221 335.097,463.721 332.5,463.5C 332.158,462.662 331.492,462.328 330.5,462.5C 331.78,461.069 333.447,460.402 335.5,460.5C 336.167,461.833 336.833,461.833 337.5,460.5C 338.492,460.672 339.158,460.338 339.5,459.5C 339.5,458.833 339.833,458.5 340.5,458.5C 341.167,459.833 341.833,459.833 342.5,458.5C 343.492,458.672 344.158,458.338 344.5,457.5C 346.224,457.539 346.557,457.206 345.5,456.5C 345.842,455.662 346.508,455.328 347.5,455.5C 348.167,456.833 348.833,456.833 349.5,455.5C 350.492,455.672 351.158,455.338 351.5,454.5 Z"/></g>
<g><path style="opacity:1" fill="#ee6240" d="M 350.5,459.5 C 348.5,460.833 346.5,462.167 344.5,463.5C 343.5,463.5 342.5,463.5 341.5,463.5C 344.088,461.375 347.088,460.042 350.5,459.5 Z"/></g>
<g><path style="opacity:0.404" fill="#f9b19f" d="M 127.5,460.5 C 129.027,460.427 130.027,461.094 130.5,462.5C 128.973,462.573 127.973,461.906 127.5,460.5 Z"/></g>
<g><path style="opacity:0.012" fill="#fbcabd" d="M 330.5,462.5 C 330.5,462.833 330.5,463.167 330.5,463.5C 329.508,463.328 328.842,463.662 328.5,464.5C 328.5,465.167 328.167,465.5 327.5,465.5C 326.151,464.356 325.817,464.356 326.5,465.5C 326.158,466.338 325.492,466.672 324.5,466.5C 324.158,465.662 323.492,465.328 322.5,465.5C 324.792,463.733 327.458,462.733 330.5,462.5 Z"/></g>
<g><path style="opacity:0.976" fill="#f99478" d="M 199.5,464.5 C 202.067,464.721 204.401,465.388 206.5,466.5C 204.473,466.662 202.473,466.495 200.5,466C 199.944,465.617 199.611,465.117 199.5,464.5 Z"/></g>
<g><path style="opacity:0.682" fill="#f6a490" d="M 341.5,463.5 C 342.5,463.5 343.5,463.5 344.5,463.5C 342.574,465.293 340.241,466.293 337.5,466.5C 338.833,465.5 340.167,464.5 341.5,463.5 Z"/></g>
<g><path style="opacity:0.004" fill="#fcd5cb" d="M 315.5,467.5 C 316.568,466.566 317.901,466.232 319.5,466.5C 319.5,467.167 319.833,467.5 320.5,467.5C 320.158,468.338 319.492,468.672 318.5,468.5C 317.791,467.596 316.791,467.263 315.5,467.5 Z"/></g>
<g><path style="opacity:0.082" fill="#fbd5cc" d="M 319.5,466.5 C 320.209,465.596 321.209,465.263 322.5,465.5C 322.5,466.167 322.833,466.5 323.5,466.5C 323.158,467.338 322.492,467.672 321.5,467.5C 321.158,466.662 320.492,466.328 319.5,466.5 Z"/></g>
<g><path style="opacity:1" fill="#f78768" d="M 207.5,466.5 C 210.373,466.802 213.039,467.469 215.5,468.5C 213.143,468.663 210.81,468.497 208.5,468C 207.944,467.617 207.611,467.117 207.5,466.5 Z"/></g>
<g><path style="opacity:0.541" fill="#f7ad9b" d="M 239.5,470.5 C 247.805,471.332 256.138,471.665 264.5,471.5C 261.183,472.165 257.683,472.499 254,472.5C 248.898,472.707 244.065,472.04 239.5,470.5 Z"/></g>
<g><path style="opacity:0.824" fill="#fbb39f" d="M 307.5,470.5 C 308.5,470.5 309.5,470.5 310.5,470.5C 304.564,473.236 298.23,474.902 291.5,475.5C 291.5,475.167 291.5,474.833 291.5,474.5C 291.842,473.662 292.508,473.328 293.5,473.5C 294.167,474.833 294.833,474.833 295.5,473.5C 297.548,473.84 298.548,473.507 298.5,472.5C 298.842,471.662 299.508,471.328 300.5,471.5C 301.5,472.833 302.5,472.833 303.5,471.5C 305.099,471.768 306.432,471.434 307.5,470.5 Z"/></g>
<g><path style="opacity:0.353" fill="#f9c2b4" d="M 337.5,466.5 C 333.043,469.657 328.043,471.657 322.5,472.5C 327.117,469.734 332.117,467.734 337.5,466.5 Z"/></g>
<g><path style="opacity:0.259" fill="#f8c4b8" d="M 287.5,474.5 C 288.5,474.5 289.5,474.5 290.5,474.5C 290.5,474.833 290.5,475.167 290.5,475.5C 288.958,476.301 287.292,476.634 285.5,476.5C 285.5,476.167 285.5,475.833 285.5,475.5C 286.167,475.167 286.833,474.833 287.5,474.5 Z"/></g>
<g><path style="opacity:0.133" fill="#f9c2b5" d="M 276.5,476.5 C 278.948,475.527 281.615,475.194 284.5,475.5C 284.5,475.833 284.5,476.167 284.5,476.5C 282.958,477.301 281.292,477.634 279.5,477.5C 278.791,476.596 277.791,476.263 276.5,476.5 Z"/></g>
<g><path style="opacity:0.902" fill="#f89d86" d="M 161.5,477.5 C 163.898,477.259 165.898,477.926 167.5,479.5C 165.214,479.405 163.214,478.738 161.5,477.5 Z"/></g>
<g><path style="opacity:0.22" fill="#f8b3a2" d="M 261.5,477.5 C 265.634,476.515 269.968,476.182 274.5,476.5C 274.842,477.338 275.508,477.672 276.5,477.5C 274.393,478.468 272.059,478.802 269.5,478.5C 267.052,477.527 264.385,477.194 261.5,477.5 Z"/></g>
<g><path style="opacity:0.165" fill="#f9bbac" d="M 322.5,472.5 C 309.597,478.543 295.931,481.376 281.5,481C 295.284,478.636 308.951,475.803 322.5,472.5 Z"/></g>
<g><path style="opacity:0.398" fill="#f8ac9a" d="M 260.5,477.5 C 262.607,478.468 264.941,478.802 267.5,478.5C 258.343,479.658 249.009,479.824 239.5,479C 238.5,478.667 237.5,478.333 236.5,478C 244.493,477.5 252.493,477.334 260.5,477.5 Z"/></g>
<g><path style="opacity:0.251" fill="#fac3b5" d="M 338.5,477.5 C 337.22,478.931 335.553,479.598 333.5,479.5C 334.78,478.069 336.447,477.402 338.5,477.5 Z"/></g>
<g><path style="opacity:1" fill="#fc9f85" d="M 172.5,481.5 C 175.01,481.054 177.01,481.72 178.5,483.5C 176.214,483.405 174.214,482.738 172.5,481.5 Z"/></g>
<g><path style="opacity:0.008" fill="#fcd6cc" d="M 330.5,480.5 C 328.898,482.074 326.898,482.741 324.5,482.5C 326.214,481.262 328.214,480.595 330.5,480.5 Z"/></g>
<g><path style="opacity:1" fill="#f78b6d" d="M 183.5,484.5 C 186.152,484.41 188.485,485.076 190.5,486.5C 187.848,486.59 185.515,485.924 183.5,484.5 Z"/></g>
<g><path style="opacity:1" fill="#f47b5c" d="M 204.5,489.5 C 210.791,489.495 216.791,490.495 222.5,492.5C 216.209,492.505 210.209,491.505 204.5,489.5 Z"/></g>
<g><path style="opacity:0.271" fill="#f8baab" d="M 277.5,492.5 C 268.709,493.937 259.709,494.604 250.5,494.5C 244.989,494.499 239.656,494.166 234.5,493.5C 248.844,493.544 263.178,493.211 277.5,492.5 Z"/></g>
</svg>
