<svg version="1.1" id="Layer_1" xmlns="http://www.w3.org/2000/svg" xmlns:xlink="http://www.w3.org/1999/xlink" x="0px" y="0px"
	 width="100%" viewBox="0 0 496 503" enable-background="new 0 0 496 503" xml:space="preserve">
<path fill="#000000" opacity="1.000000" stroke="none" 
	d="
M1.000000,124.000000 
	C1.000000,82.676872 1.000000,41.853745 1.000000,1.015308 
	C166.281815,1.015308 331.563629,1.015308 496.922729,1.015308 
	C496.922729,168.573212 496.922729,336.146454 496.922729,503.859863 
	C331.666748,503.859863 166.333389,503.859863 1.000000,503.859863 
	C1.000000,377.436249 1.000000,250.968124 1.000000,124.000000 
M389.578308,430.969147 
	C389.747345,430.652100 389.916412,430.335083 390.007721,430.007568 
	C390.007721,430.007568 389.999268,430.085541 390.638367,430.017944 
	C391.118042,429.692200 391.597717,429.366425 392.003845,429.017548 
	C392.003845,429.017548 392.051300,429.078369 392.592926,428.923340 
	C392.412262,428.585114 392.231598,428.246918 391.711853,427.318481 
	C389.117462,429.187164 386.523041,431.055847 383.264587,433.013367 
	C382.517761,433.923859 381.770966,434.834320 380.474609,436.064545 
	C379.825378,436.603729 379.176147,437.142914 377.953583,438.004303 
	C376.307495,439.053528 374.661377,440.102753 372.458099,441.101868 
	C371.974030,441.639343 371.489960,442.176849 370.363007,442.972168 
	C369.484924,443.649017 368.606873,444.325836 367.178467,444.937775 
	C366.777863,445.223175 366.377228,445.508575 365.277588,445.972870 
	C363.682770,446.999268 362.087952,448.025696 359.701721,448.924957 
	C356.570374,449.710602 353.288727,450.134613 350.340332,451.360321 
	C344.901367,453.621368 339.768677,456.635223 334.291473,458.782043 
	C331.027039,460.061554 327.295074,460.088043 323.868256,461.025024 
	C314.504578,463.585266 305.296143,466.817505 295.826141,468.852570 
	C287.691589,470.600677 279.270050,470.984344 270.995361,472.116913 
	C261.369415,473.434418 251.872498,474.804199 242.061447,472.656708 
	C236.400681,471.417694 230.225891,472.644714 224.489304,471.612366 
	C207.369095,468.531403 190.497818,464.369720 174.614105,456.991821 
	C164.449646,452.270447 153.625336,448.521454 144.359940,442.418793 
	C130.786057,433.478424 117.766510,423.476929 105.551651,412.743073 
	C86.311981,395.836121 69.901756,376.295929 59.175510,352.804535 
	C52.770496,338.776978 46.981380,324.321014 42.612598,309.555481 
	C38.839268,296.802429 36.047626,283.416809 35.329098,270.174805 
	C33.926323,244.322479 34.468998,218.446609 41.968895,193.186096 
	C47.555119,174.371048 54.738731,156.258972 64.497528,139.288818 
	C69.269142,130.991196 75.788437,123.714020 80.815895,115.543747 
	C85.789581,107.460869 92.965508,101.307632 98.957924,94.204338 
	C106.704147,85.022118 116.510490,77.333481 126.280952,70.161263 
	C140.488220,59.732113 155.745651,50.776974 172.501801,44.962093 
	C184.313080,40.863228 196.288712,37.076557 208.430481,34.141293 
	C218.548889,31.695171 229.026535,30.754761 239.323456,29.019129 
	C244.420715,28.159945 249.496094,26.080959 254.533112,26.226273 
	C261.042725,26.414064 267.502869,25.203444 274.253937,27.680176 
	C281.128235,30.202120 289.034729,29.794735 296.415466,31.090462 
	C301.768585,32.030228 307.199921,29.387112 312.660675,32.817982 
	C317.158752,35.644043 322.916565,36.379410 327.901398,38.537292 
	C334.690186,41.476074 341.274811,44.886528 348.279175,48.748318 
	C353.703644,50.433434 359.128113,52.118553 365.279602,54.046402 
	C378.515381,63.410942 391.751129,72.775482 405.113190,82.451050 
	C405.113190,82.451050 405.447144,82.484947 405.697510,82.426712 
	C405.697510,82.426712 405.632416,82.178040 405.548370,82.843903 
	C406.033630,83.294678 406.518890,83.745453 407.079163,84.590515 
	C407.224640,84.852249 407.447052,84.979103 408.100433,85.573967 
	C415.681061,93.724747 423.261658,101.875526 431.085907,110.692963 
	C433.857361,114.760635 436.574402,118.867638 439.457825,122.854340 
	C439.899078,123.464439 441.108459,123.518974 442.585205,124.184135 
	C443.976227,127.612022 445.308014,131.065735 446.785736,134.455826 
	C447.427887,135.928955 448.216827,137.392563 449.209351,138.646545 
	C451.011780,140.923767 453.804779,142.730865 454.805939,145.276321 
	C460.424988,159.563080 465.597687,174.024872 471.026794,188.387573 
	C471.666534,190.079987 472.942963,191.531723 474.005615,193.935959 
	C475.387024,201.302368 476.768463,208.668777 478.149872,216.035202 
	C478.827850,215.922546 479.505859,215.809891 480.183838,215.697235 
	C479.869110,207.668243 478.644836,199.759659 475.957428,191.267349 
	C474.355286,185.636185 472.958527,179.936569 471.109467,174.387695 
	C466.853149,161.614502 461.573212,149.380997 455.267670,137.355057 
	C446.993988,121.575546 437.034241,107.139832 425.315765,94.082573 
	C409.922394,76.930565 392.802002,61.533783 372.970428,49.343319 
	C354.372620,37.911247 334.656494,29.192707 313.484100,24.106527 
	C299.844086,20.829832 285.983643,18.370205 272.125519,16.145498 
	C265.486542,15.079715 258.618195,15.084109 251.863647,15.196785 
	C244.954666,15.312035 238.046692,16.038456 231.158676,16.707495 
	C223.929398,17.409683 216.724365,18.361296 208.833527,19.191847 
	C207.241180,19.432032 205.648819,19.672216 204.057724,19.108976 
	C204.198120,18.833155 204.306992,18.338207 204.483383,18.312838 
	C215.034393,16.795382 225.590958,15.316577 237.059998,13.942490 
	C245.346878,13.907005 253.633743,13.871521 262.839600,13.957339 
	C273.915771,15.000652 285.048859,15.645314 296.049591,17.216745 
	C304.450714,18.416834 312.958588,20.012123 320.928925,22.821753 
	C333.329956,27.193243 345.256226,32.892559 357.489777,37.762531 
	C376.781738,45.442307 393.336975,57.292488 408.526672,71.142365 
	C415.872498,77.840240 422.656372,85.155296 429.678131,92.207390 
	C433.720032,96.266731 438.415558,99.885757 441.616272,104.530342 
	C449.357697,115.763954 456.394897,127.482857 463.921539,139.734024 
	C468.002777,147.814606 472.083984,155.895187 476.261230,164.700073 
	C479.283844,173.694412 482.306427,182.688736 485.367767,191.798386 
	C487.489288,188.630539 483.072723,172.114349 477.964905,162.241577 
	C474.642822,154.412674 471.320740,146.583786 467.990784,138.052490 
	C466.659088,135.641647 465.291962,133.249588 464.001282,130.816956 
	C453.902039,111.782249 441.424377,94.460670 426.463531,78.957146 
	C412.635254,64.627327 397.469147,51.907265 380.262848,41.790710 
	C369.646576,35.548820 359.153900,28.958437 348.026337,23.766256 
	C338.396057,19.272707 328.106628,15.940575 317.816498,13.186104 
	C308.359680,10.654678 298.530090,9.475295 288.832855,7.896060 
	C281.861084,6.760681 274.836884,5.947366 267.600098,4.149246 
	C261.853485,4.100968 256.104980,3.945000 250.361053,4.047269 
	C247.222092,4.103156 244.090897,4.596023 240.066315,4.988450 
	C236.963577,5.316175 233.835342,5.489694 230.762512,5.998213 
	C217.168472,8.247875 203.416595,9.865917 190.043030,13.058132 
	C163.103760,19.488432 138.349854,31.338118 115.235390,46.413349 
	C105.263657,52.916901 95.987465,60.520920 86.636292,67.929214 
	C81.027397,72.372757 76.449966,77.839371 70.296951,81.959816 
	C64.498634,85.842766 60.492855,92.614288 56.184425,98.472458 
	C40.196358,120.211403 26.983856,143.326050 18.650860,169.282684 
	C12.168526,189.474640 8.120199,209.987885 5.996952,230.967743 
	C5.559302,235.292145 6.110045,239.707825 5.959316,244.072968 
	C5.852207,247.174911 4.844845,250.303268 5.098835,253.348129 
	C5.612184,259.502228 6.784673,265.598297 7.549683,271.735199 
	C8.711259,281.053345 8.839867,290.612122 11.071048,299.658325 
	C14.285137,312.689758 17.933348,325.819519 23.326729,338.056488 
	C30.201504,353.654541 38.070320,368.994659 47.191299,383.380371 
	C60.857975,404.935577 77.900085,423.721771 97.537277,440.320435 
	C117.423729,457.129791 139.626221,469.855194 163.444626,479.557373 
	C187.450806,489.335999 212.869843,494.536041 238.758224,495.787201 
	C252.717102,496.461823 266.932434,495.676453 280.781555,493.749481 
	C296.212646,491.602356 311.592560,488.222839 326.575348,483.919617 
	C349.242126,477.409454 369.879181,466.374451 389.503479,453.237915 
	C400.062897,446.169495 410.367828,438.776001 418.814819,429.440887 
	C428.443024,418.800262 436.714691,406.942841 445.802124,395.798676 
	C452.494385,387.591766 458.455811,379.507690 462.119781,368.977386 
	C468.519165,350.585449 477.334900,333.012970 480.662048,313.599091 
	C482.344299,303.783173 483.468262,293.871643 485.026062,283.163757 
	C485.026062,274.541107 485.026062,265.918427 485.026062,257.295776 
	C484.412598,257.251282 483.799133,257.206787 483.185669,257.162292 
	C483.069550,262.769348 482.953430,268.376373 482.973663,274.790680 
	C482.077301,280.951019 481.466888,287.169830 480.222168,293.258942 
	C477.974152,304.255737 476.077332,315.408081 472.678101,326.062897 
	C469.095398,337.293030 464.183533,348.132568 459.341644,358.913391 
	C456.956299,364.224670 453.299408,368.951233 450.425568,374.059204 
	C441.479492,389.959808 430.564392,404.200684 415.473267,415.956360 
	C413.945404,416.955292 412.417511,417.954224 410.266235,419.188446 
	C407.118286,422.127075 403.970337,425.065674 400.215027,428.292572 
	C395.079895,432.189667 389.944733,436.086731 384.220825,440.278351 
	C382.135040,441.808197 380.049255,443.338043 377.340302,444.960754 
	C376.871094,445.289368 376.401886,445.618011 376.002106,445.977570 
	C376.002106,445.977570 375.964722,445.911377 375.321686,445.950287 
	C374.836029,446.286377 374.350403,446.622437 373.300720,447.209259 
	C372.506470,447.780945 371.712250,448.352661 371.011322,448.961029 
	C371.011322,448.961029 370.931030,448.900146 370.215393,448.980042 
	C367.793121,450.283844 365.370850,451.587616 362.492249,453.063446 
	C362.191193,453.243378 362.016907,453.507080 361.286682,453.948029 
	C360.130127,454.985626 358.973541,456.023193 357.010956,457.074738 
	C355.672760,457.101379 354.334564,457.128021 352.409760,456.922424 
	C352.241272,456.796600 352.072815,456.670746 352.411438,456.117310 
	C355.255859,453.912537 358.100281,451.707733 361.551666,449.068726 
	C363.049469,448.335327 364.547272,447.601929 366.803833,446.983643 
	C370.131531,444.919403 373.459259,442.855133 377.187439,440.232056 
	C377.613953,439.364471 378.040497,438.496887 379.240845,437.967407 
	C380.184662,437.330231 381.128448,436.693085 382.010284,436.019318 
	C382.010284,436.019318 382.015442,436.091125 382.647400,436.013672 
	C382.841583,435.750214 383.035797,435.486755 383.101654,435.206726 
	C383.101654,435.206726 383.198792,435.292267 383.851227,435.546783 
	C384.595032,434.707092 385.338867,433.867371 386.011475,433.015137 
	C386.011475,433.015137 386.002960,433.086914 386.640167,433.018188 
	C387.118958,432.692596 387.597748,432.367004 388.010986,432.014435 
	C388.010986,432.014435 388.028290,432.083130 388.563904,431.952148 
	C388.737671,431.643616 388.911438,431.335083 389.015930,431.015472 
	C389.015930,431.015472 389.027985,431.084564 389.578308,430.969147 
M231.672974,126.178009 
	C221.392151,126.168594 211.111328,126.159187 200.075073,126.419571 
	C196.035385,126.938507 191.974472,127.330566 187.960297,128.002029 
	C178.772339,129.538925 169.372086,130.417908 160.496429,133.045135 
	C150.880859,135.891403 141.803238,140.522324 132.415833,144.182144 
	C124.298653,147.346725 118.514946,152.785614 118.377754,161.656387 
	C118.246780,170.124817 119.498100,178.652939 120.618858,187.091476 
	C121.711227,195.316208 125.133797,203.632034 124.343781,211.591263 
	C123.584465,219.241302 127.760132,223.203140 130.782333,228.498566 
	C131.728516,230.156433 131.697388,232.497528 131.726181,234.531357 
	C131.839935,242.566452 131.792221,250.603760 131.819580,258.640198 
	C131.836105,263.488739 134.836288,269.112427 127.691460,271.987823 
	C126.326828,272.536987 125.491859,275.137939 124.992577,276.951904 
	C123.877403,281.003601 125.106430,285.899567 120.283867,288.561981 
	C119.738541,288.863037 120.053375,290.762299 120.009056,291.921967 
	C119.926674,294.077515 119.825645,296.233948 119.816689,298.390381 
	C119.780441,307.110840 119.612762,315.835114 119.809700,324.550842 
	C119.981071,332.135010 120.428871,339.721771 121.050865,347.283020 
	C121.349846,350.917542 121.437759,355.011841 123.165314,358.007446 
	C129.577179,369.125519 139.194519,375.066803 152.485275,374.015198 
	C161.495193,373.302338 170.182297,374.293060 178.227478,378.950104 
	C179.368103,379.610382 181.220245,379.041473 182.374481,379.041473 
	C184.082932,381.497284 185.825333,384.001923 188.319138,387.586639 
	C188.982208,383.167419 189.368073,380.595734 189.609619,378.985962 
	C192.754593,379.380646 194.754822,379.631653 196.795441,379.887726 
	C197.022537,381.275391 197.300446,382.973389 197.578339,384.671417 
	C197.885941,384.231140 198.193542,383.790894 198.501144,383.350616 
	C201.050934,383.794250 203.587936,384.349457 206.154831,384.644165 
	C208.010559,384.857269 209.908585,384.789032 211.782516,384.714447 
	C212.553375,384.683746 213.339539,384.047821 214.069138,384.129578 
	C219.113586,384.694977 224.131851,385.765900 229.183411,385.936279 
	C238.199463,386.240295 247.236252,386.169342 256.258209,385.972565 
	C262.243256,385.841980 268.217590,385.219513 275.011017,384.927124 
	C277.742126,384.626587 280.477173,384.042236 283.203552,384.080505 
	C290.405243,384.181519 297.603210,384.552460 305.749573,384.980988 
	C313.678802,384.651825 321.614990,384.435364 329.534302,383.945465 
	C333.431396,383.704407 337.605042,383.716400 341.117615,382.292114 
	C350.443970,378.510498 359.521149,374.097015 368.577850,369.689056 
	C369.752472,369.117371 370.567993,367.192749 370.966095,365.735382 
	C375.136749,350.468018 375.156525,334.823517 375.778717,318.725708 
	C375.797485,307.506226 375.816254,296.286713 375.965851,284.129578 
	C376.254578,263.435242 376.543335,242.740891 376.999908,221.111221 
	C376.946533,209.383881 376.893188,197.656555 376.969238,185.020935 
	C376.319763,174.347687 375.694855,163.672867 375.014221,153.001617 
	C374.271210,141.352615 370.931549,130.499359 363.622284,121.336685 
	C359.691589,116.409325 354.331268,113.282448 347.440033,114.569458 
	C339.153625,116.117020 330.909210,117.546616 322.453339,118.419624 
	C306.829102,120.032722 291.437378,123.898102 275.436310,126.312225 
	C273.835999,126.536278 272.237549,126.939003 270.635071,126.955727 
	C259.169952,127.075394 247.703964,127.116470 235.425537,127.013908 
	C234.319214,126.991791 233.212906,126.969681 231.672974,126.178009 
z"/>
<path fill="#EA3C12" opacity="1.000000" stroke="none" 
	d="
M274.196716,384.817230 
	C268.217590,385.219513 262.243256,385.841980 256.258209,385.972565 
	C247.236252,386.169342 238.199463,386.240295 229.183411,385.936279 
	C224.131851,385.765900 219.113586,384.694977 214.069138,384.129578 
	C213.339539,384.047821 212.553375,384.683746 211.782516,384.714447 
	C209.908585,384.789032 208.010559,384.857269 206.154831,384.644165 
	C203.587936,384.349457 201.050934,383.794250 198.501144,383.350616 
	C198.193542,383.790894 197.885941,384.231140 197.578339,384.671417 
	C197.300446,382.973389 197.022537,381.275391 196.795441,379.887726 
	C194.754822,379.631653 192.754593,379.380646 189.609619,378.985962 
	C189.368073,380.595734 188.982208,383.167419 188.319138,387.586639 
	C185.825333,384.001923 184.082932,381.497284 182.374481,379.041473 
	C181.220245,379.041473 179.368103,379.610382 178.227478,378.950104 
	C170.182297,374.293060 161.495193,373.302338 152.485275,374.015198 
	C139.194519,375.066803 129.577179,369.125519 123.165314,358.007446 
	C121.437759,355.011841 121.349846,350.917542 121.050865,347.283020 
	C120.428871,339.721771 119.981071,332.135010 119.809700,324.550842 
	C119.612762,315.835114 119.780441,307.110840 119.816689,298.390381 
	C119.825645,296.233948 119.926674,294.077515 120.009056,291.921967 
	C120.053375,290.762299 119.738541,288.863037 120.283867,288.561981 
	C125.106430,285.899567 123.877403,281.003601 124.992577,276.951904 
	C125.491859,275.137939 126.326828,272.536987 127.691460,271.987823 
	C134.836288,269.112427 131.836105,263.488739 131.819580,258.640198 
	C131.792221,250.603760 131.839935,242.566452 131.726181,234.531357 
	C131.697388,232.497528 131.728516,230.156433 130.782333,228.498566 
	C127.760132,223.203140 123.584465,219.241302 124.343781,211.591263 
	C125.133797,203.632034 121.711227,195.316208 120.618858,187.091476 
	C119.498100,178.652939 118.246780,170.124817 118.377754,161.656387 
	C118.514946,152.785614 124.298653,147.346725 132.415833,144.182144 
	C141.803238,140.522324 150.880859,135.891403 160.496429,133.045135 
	C169.372086,130.417908 178.772339,129.538925 187.960297,128.002029 
	C191.974472,127.330566 196.035385,126.938507 200.735443,126.621933 
	C211.632751,126.865379 221.869659,126.906471 232.106583,126.947563 
	C233.212906,126.969681 234.319214,126.991791 236.163177,127.291504 
	C248.698288,127.709396 260.495636,127.884834 272.293518,127.937119 
	C273.510284,127.942513 274.730286,127.213470 275.948792,126.825211 
	C291.437378,123.898102 306.829102,120.032722 322.453339,118.419624 
	C330.909210,117.546616 339.153625,116.117020 347.440033,114.569458 
	C354.331268,113.282448 359.691589,116.409325 363.622284,121.336685 
	C370.931549,130.499359 374.271210,141.352615 375.014221,153.001617 
	C375.694855,163.672867 376.319763,174.347687 376.573212,185.750687 
	C376.107544,196.943146 376.004852,207.405884 376.007721,217.868561 
	C376.008118,219.261292 376.544128,220.653900 376.832092,222.046555 
	C376.543335,242.740891 376.254578,263.435242 375.574249,284.862030 
	C374.786865,295.444733 374.347321,305.293671 374.046936,315.146851 
	C374.006378,316.477020 374.665222,317.828522 375.000214,319.170166 
	C375.156525,334.823517 375.136749,350.468018 370.966095,365.735382 
	C370.567993,367.192749 369.752472,369.117371 368.577850,369.689056 
	C359.521149,374.097015 350.443970,378.510498 341.117615,382.292114 
	C337.605042,383.716400 333.431396,383.704407 329.534302,383.945465 
	C321.614990,384.435364 313.678802,384.651825 305.175385,384.541260 
	C304.216705,383.817657 303.835205,383.290497 303.447266,383.285736 
	C294.544830,383.176025 285.641418,383.075195 276.739319,383.137268 
	C275.887909,383.143219 275.044067,384.231445 274.196716,384.817230 
M222.957397,184.121780 
	C222.972122,236.964157 222.977356,289.806519 223.036636,342.648865 
	C223.038986,344.739044 223.555893,346.828674 223.994934,349.657471 
	C225.162247,354.191681 228.926529,355.244843 233.335342,356.606964 
	C243.013412,356.468781 252.691498,356.330566 263.097687,355.956787 
	C265.116486,354.651306 267.135254,353.345825 269.880737,351.852356 
	C270.585968,349.263092 271.900085,346.675415 271.906647,344.084381 
	C272.042389,290.465637 272.029480,236.846542 272.966553,183.076691 
	C288.975739,182.995956 304.984894,182.915207 321.689270,182.740952 
	C324.828400,181.267090 327.285339,179.512924 327.443817,175.422455 
	C327.708435,168.592361 329.116699,161.742126 328.721313,154.977661 
	C328.518188,151.502914 325.457825,148.195160 323.530243,144.077637 
	C321.830933,143.714294 320.132019,143.035629 318.432251,143.033554 
	C271.302399,142.976105 224.172455,142.975494 177.042603,143.035812 
	C175.368378,143.037964 173.695068,143.756195 171.689194,144.770340 
	C170.460114,146.348343 168.243698,147.879990 168.167099,149.512070 
	C167.762741,158.127594 167.785019,166.770020 167.908585,175.399551 
	C167.949921,178.286957 168.167206,181.518967 172.766388,182.681427 
	C174.741302,182.805252 176.715683,183.026443 178.691223,183.037369 
	C193.433990,183.118866 208.176987,183.158752 222.957397,184.121780 
z"/>
<path fill="#EA4018" opacity="1.000000" stroke="none" 
	d="
M361.969391,453.854553 
	C362.016907,453.507080 362.191193,453.243378 362.938080,453.171204 
	C365.876495,452.998444 368.369080,452.717987 371.178467,452.401855 
	C371.108154,451.406921 371.019592,450.153534 370.931030,448.900146 
	C370.931030,448.900146 371.011322,448.961029 371.260223,449.006226 
	C372.672150,449.368347 373.835175,449.685272 375.188416,450.114685 
	C375.253632,449.471985 375.128662,448.716858 375.020538,447.757965 
	C375.037415,447.554230 375.073669,447.146942 375.292480,446.996124 
	C375.662445,446.533997 375.813599,446.222687 375.964722,445.911377 
	C375.964722,445.911377 376.002106,445.977570 376.307251,445.984741 
	C377.066071,446.003326 377.519775,446.014740 377.981720,446.308594 
	C378.090363,447.069519 378.190765,447.548065 378.291138,448.026581 
	C378.515900,447.941406 378.740662,447.856262 378.965393,447.771088 
	C378.652130,447.175018 378.338837,446.578979 378.017822,445.703735 
	C377.994568,445.238983 377.979004,445.053436 377.963440,444.867859 
	C380.049255,443.338043 382.135040,441.808197 384.848724,440.216644 
	C386.792023,440.507965 388.689117,441.598206 389.328156,441.094025 
	C393.381714,437.895721 397.157135,434.344971 401.372498,430.951477 
	C405.355560,427.610138 408.990448,424.227753 412.850128,420.754120 
	C413.398895,420.294281 413.722839,419.925659 414.311890,419.441498 
	C414.803986,418.873444 415.030975,418.420990 415.472534,417.581543 
	C415.807281,416.617798 415.927490,416.041077 416.047668,415.464325 
	C430.564392,404.200684 441.479492,389.959808 450.425568,374.059204 
	C453.299408,368.951233 456.956299,364.224670 459.341644,358.913391 
	C464.183533,348.132568 469.095398,337.293030 472.678101,326.062897 
	C476.077332,315.408081 477.974152,304.255737 480.222168,293.258942 
	C481.466888,287.169830 482.077301,280.951019 483.222992,274.648712 
	C483.929749,277.672272 484.387177,280.837799 484.844604,284.003326 
	C483.468262,293.871643 482.344299,303.783173 480.662048,313.599091 
	C477.334900,333.012970 468.519165,350.585449 462.119781,368.977386 
	C458.455811,379.507690 452.494385,387.591766 445.802124,395.798676 
	C436.714691,406.942841 428.443024,418.800262 418.814819,429.440887 
	C410.367828,438.776001 400.062897,446.169495 389.503479,453.237915 
	C369.879181,466.374451 349.242126,477.409454 326.575348,483.919617 
	C311.592560,488.222839 296.212646,491.602356 280.781555,493.749481 
	C266.932434,495.676453 252.717102,496.461823 238.758224,495.787201 
	C212.869843,494.536041 187.450806,489.335999 163.444626,479.557373 
	C139.626221,469.855194 117.423729,457.129791 97.537277,440.320435 
	C77.900085,423.721771 60.857975,404.935577 47.191299,383.380371 
	C38.070320,368.994659 30.201504,353.654541 23.326729,338.056488 
	C17.933348,325.819519 14.285137,312.689758 11.071048,299.658325 
	C8.839867,290.612122 8.711259,281.053345 7.549683,271.735199 
	C6.784673,265.598297 5.612184,259.502228 5.098835,253.348129 
	C4.844845,250.303268 5.852207,247.174911 5.959316,244.072968 
	C6.110045,239.707825 5.559302,235.292145 5.996952,230.967743 
	C8.120199,209.987885 12.168526,189.474640 18.650860,169.282684 
	C26.983856,143.326050 40.196358,120.211403 56.184425,98.472458 
	C60.492855,92.614288 64.498634,85.842766 70.296951,81.959816 
	C76.449966,77.839371 81.027397,72.372757 86.636292,67.929214 
	C95.987465,60.520920 105.263657,52.916901 115.235390,46.413349 
	C138.349854,31.338118 163.103760,19.488432 190.043030,13.058132 
	C203.416595,9.865917 217.168472,8.247875 230.762512,5.998213 
	C233.835342,5.489694 236.963577,5.316175 240.967957,5.068884 
	C250.525085,5.096338 259.180573,5.043359 267.836060,4.990381 
	C274.836884,5.947366 281.861084,6.760681 288.832855,7.896060 
	C298.530090,9.475295 308.359680,10.654678 317.816498,13.186104 
	C328.106628,15.940575 338.396057,19.272707 348.026337,23.766256 
	C359.153900,28.958437 369.646576,35.548820 380.262848,41.790710 
	C397.469147,51.907265 412.635254,64.627327 426.463531,78.957146 
	C441.424377,94.460670 453.902039,111.782249 464.001282,130.816956 
	C465.291962,133.249588 466.659088,135.641647 467.946411,138.699524 
	C466.506653,139.233093 465.111328,139.119598 463.715942,139.006119 
	C456.394897,127.482857 449.357697,115.763954 441.616272,104.530342 
	C438.415558,99.885757 433.720032,96.266731 429.678131,92.207390 
	C422.656372,85.155296 415.872498,77.840240 408.526672,71.142365 
	C393.336975,57.292488 376.781738,45.442307 357.489777,37.762531 
	C345.256226,32.892559 333.329956,27.193243 320.928925,22.821753 
	C312.958588,20.012123 304.450714,18.416834 296.049591,17.216745 
	C285.048859,15.645314 273.915771,15.000652 262.106506,13.582945 
	C252.964630,13.417072 244.555817,13.625593 236.147003,13.834114 
	C225.590958,15.316577 215.034393,16.795382 204.483383,18.312838 
	C204.306992,18.338207 204.198120,18.833155 203.766678,19.653984 
	C202.292831,20.154593 201.110016,20.110189 199.522141,20.034550 
	C193.722672,21.908594 188.328262,23.813881 182.698700,25.783836 
	C182.463531,25.848507 181.999817,25.999866 181.757675,25.824409 
	C181.185928,25.294502 180.695129,24.574547 180.550079,24.638523 
	C175.657883,26.796280 170.798599,29.028631 165.724182,31.251385 
	C165.048233,31.594299 164.582626,31.935974 163.727356,32.177929 
	C159.875549,33.705551 156.413406,35.332890 152.974945,36.979080 
	C152.998642,36.997936 152.982162,36.939690 152.647324,36.792606 
	C151.857117,37.087589 151.401733,37.529655 150.972778,37.985287 
	C150.999191,37.998852 150.996887,37.939495 150.659012,37.804798 
	C149.861908,38.106884 149.402679,38.543671 148.971848,38.989105 
	C149.000244,38.997749 148.986893,38.939919 148.638153,38.822826 
	C147.044952,39.277153 145.800476,39.848568 144.556000,40.419987 
	C144.617355,40.609711 144.678711,40.799435 144.740067,40.989159 
	C145.801743,40.772282 146.863403,40.555405 147.787064,40.670601 
	C144.959305,43.196251 142.468658,46.053181 138.400436,43.335957 
	C138.240677,44.839199 138.126175,45.916637 137.709702,47.003853 
	C136.970581,47.752758 136.533432,48.491882 136.155289,49.131241 
	C136.800171,48.771473 137.406738,48.433067 138.241058,48.338963 
	C139.547928,48.430641 140.790253,48.572384 141.680405,48.078865 
	C148.863190,44.096577 155.979736,39.994801 163.432358,35.960625 
	C164.163544,35.962692 164.578873,35.933636 165.342606,35.814758 
	C172.336639,33.213074 178.982269,30.701208 185.974976,28.061125 
	C187.457016,27.639784 188.591949,27.346659 190.154022,27.069071 
	C197.843994,25.538799 205.106812,23.992994 212.989166,22.315332 
	C211.431793,20.923075 210.470261,20.063486 209.508728,19.203903 
	C216.724365,18.361296 223.929398,17.409683 231.158676,16.707495 
	C238.046692,16.038456 244.954666,15.312035 251.863647,15.196785 
	C258.618195,15.084109 265.486542,15.079715 272.125519,16.145498 
	C285.983643,18.370205 299.844086,20.829832 313.484100,24.106527 
	C334.656494,29.192707 354.372620,37.911247 372.970428,49.343319 
	C392.802002,61.533783 409.922394,76.930565 425.315765,94.082573 
	C437.034241,107.139832 446.993988,121.575546 455.267670,137.355057 
	C461.573212,149.380997 466.853149,161.614502 471.109467,174.387695 
	C472.958527,179.936569 474.355286,185.636185 475.604492,191.692581 
	C474.809113,192.443558 474.366699,192.769318 473.924255,193.095062 
	C472.942963,191.531723 471.666534,190.079987 471.026794,188.387573 
	C465.597687,174.024872 460.424988,159.563080 454.805939,145.276321 
	C453.804779,142.730865 451.011780,140.923767 449.209351,138.646545 
	C448.216827,137.392563 447.427887,135.928955 446.785736,134.455826 
	C445.308014,131.065735 443.976227,127.612022 442.380005,123.718277 
	C438.459198,117.776466 434.743591,112.300514 430.935669,106.507446 
	C425.742279,100.196388 420.864655,93.987083 415.412964,88.331047 
	C413.622589,86.473557 410.344269,86.050217 407.746368,84.971077 
	C407.447052,84.979103 407.224640,84.852249 407.004272,84.061920 
	C406.497040,83.081566 406.064728,82.629807 405.632416,82.178040 
	C405.632416,82.178040 405.697510,82.426712 405.680908,82.283188 
	C405.438507,82.139778 405.212708,82.139900 404.986908,82.140022 
	C391.751129,72.775482 378.515381,63.410942 364.884674,53.613754 
	C360.934387,51.281269 357.498108,49.075714 353.768616,47.622837 
	C352.136963,46.987209 349.905853,47.890350 347.946960,48.094730 
	C341.274811,44.886528 334.690186,41.476074 327.901398,38.537292 
	C322.916565,36.379410 317.158752,35.644043 312.660675,32.817982 
	C307.199921,29.387112 301.768585,32.030228 296.415466,31.090462 
	C289.034729,29.794735 281.128235,30.202120 274.253937,27.680176 
	C267.502869,25.203444 261.042725,26.414064 254.533112,26.226273 
	C249.496094,26.080959 244.420715,28.159945 239.323456,29.019129 
	C229.026535,30.754761 218.548889,31.695171 208.430481,34.141293 
	C196.288712,37.076557 184.313080,40.863228 172.501801,44.962093 
	C155.745651,50.776974 140.488220,59.732113 126.280952,70.161263 
	C116.510490,77.333481 106.704147,85.022118 98.957924,94.204338 
	C92.965508,101.307632 85.789581,107.460869 80.815895,115.543747 
	C75.788437,123.714020 69.269142,130.991196 64.497528,139.288818 
	C54.738731,156.258972 47.555119,174.371048 41.968895,193.186096 
	C34.468998,218.446609 33.926323,244.322479 35.329098,270.174805 
	C36.047626,283.416809 38.839268,296.802429 42.612598,309.555481 
	C46.981380,324.321014 52.770496,338.776978 59.175510,352.804535 
	C69.901756,376.295929 86.311981,395.836121 105.551651,412.743073 
	C117.766510,423.476929 130.786057,433.478424 144.359940,442.418793 
	C153.625336,448.521454 164.449646,452.270447 174.614105,456.991821 
	C190.497818,464.369720 207.369095,468.531403 224.489304,471.612366 
	C230.225891,472.644714 236.400681,471.417694 242.061447,472.656708 
	C251.872498,474.804199 261.369415,473.434418 270.995361,472.116913 
	C279.270050,470.984344 287.691589,470.600677 295.826141,468.852570 
	C305.296143,466.817505 314.504578,463.585266 323.868256,461.025024 
	C327.295074,460.088043 331.027039,460.061554 334.291473,458.782043 
	C339.768677,456.635223 344.901367,453.621368 350.340332,451.360321 
	C353.288727,450.134613 356.570374,449.710602 360.308044,449.004333 
	C360.914398,449.083679 360.944672,449.502930 360.944672,449.502930 
	C358.100281,451.707733 355.255859,453.912537 352.125671,456.419495 
	C351.839905,456.721680 351.712677,456.858185 351.520660,456.855652 
	C351.095062,457.014954 351.006256,457.234985 350.807312,457.752167 
	C350.088531,457.989380 349.624695,457.987671 349.005371,457.694550 
	C348.602264,457.830353 348.354736,458.257538 347.802277,458.834167 
	C347.047516,459.030304 346.597717,459.076996 345.910065,458.991699 
	C345.123108,459.495422 344.573975,460.131165 343.724854,460.894989 
	C343.215607,461.082184 343.006348,461.141327 342.556152,461.070374 
	C341.690948,460.687592 341.066772,460.434906 340.442566,460.182220 
	C340.612885,460.704803 340.783203,461.227356 340.613464,461.832581 
	C339.428833,462.277252 338.584290,462.639282 337.587250,463.050751 
	C337.229736,463.221069 337.147766,463.398651 337.202972,464.105225 
	C337.259277,464.889709 337.301453,465.201904 337.392670,465.711823 
	C337.864777,465.963470 338.287903,466.017395 338.900208,466.161072 
	C339.322388,466.382690 339.570374,466.473511 339.872131,466.776367 
	C343.336395,467.850311 346.059296,466.846466 348.344818,463.896484 
	C349.117859,463.591492 349.580902,463.291504 350.021423,462.989868 
	C349.998901,462.988281 350.012207,463.030487 350.354370,463.136658 
	C351.712402,462.699280 352.728302,462.155731 354.062317,461.552185 
	C356.593414,460.326569 358.806427,459.160919 361.002075,457.998444 
	C360.984711,458.001617 360.994415,458.036438 361.219910,457.945892 
	C361.292084,457.532440 361.138794,457.209564 361.034790,456.570251 
	C361.379150,455.454071 361.674255,454.654327 361.969391,453.854553 
M87.194893,86.850159 
	C86.948326,87.067894 86.750221,87.323219 86.193924,87.877037 
	C85.954979,88.098457 85.766655,88.356773 85.217827,88.906967 
	C84.974205,89.125984 84.789490,89.386726 84.245430,89.935989 
	C84.002228,90.159462 83.828590,90.427910 83.279427,90.940300 
	C83.022957,91.149445 82.827866,91.405365 82.252068,91.918098 
	C81.975113,92.118599 81.795654,92.384811 81.316864,92.986168 
	C81.066643,93.198868 80.884758,93.459290 80.324524,93.962418 
	C80.066086,94.166252 79.856873,94.411980 79.106644,94.920692 
	C78.327065,95.876587 77.547478,96.832481 76.425255,98.117119 
	C76.485680,98.385048 76.546104,98.652985 76.606529,98.920914 
	C76.863853,98.747307 77.121170,98.573708 77.953247,98.136536 
	C78.698471,97.149185 79.443695,96.161835 80.599434,94.914291 
	C80.858154,94.698555 81.029312,94.427513 81.548584,93.894714 
	C81.819298,93.699829 82.009125,93.444740 82.565506,92.915016 
	C82.841835,92.710014 83.028465,92.442451 83.558044,91.884949 
	C83.822746,91.672928 83.998482,91.402985 84.530472,90.873619 
	C84.808975,90.680786 85.003822,90.424377 85.561714,89.907463 
	C85.840508,89.716881 86.039200,89.463493 86.598289,88.941093 
	C86.873764,88.749367 87.072342,88.497093 87.627548,87.963493 
	C87.899651,87.768097 88.096886,87.514481 88.631523,86.892273 
	C88.618523,86.654938 88.605522,86.417603 88.592522,86.180267 
	C88.266457,86.320190 87.940392,86.460114 87.194893,86.850159 
M70.814209,106.994370 
	C70.781441,106.722404 70.748680,106.450432 70.715912,106.178467 
	C70.407288,106.387047 70.098656,106.595634 69.306587,107.144028 
	C69.324905,107.424965 69.343224,107.705894 69.361542,107.986832 
	C69.707886,107.791679 70.054222,107.596519 70.814209,106.994370 
M74.275703,100.964355 
	C74.078682,101.411247 73.881660,101.858139 73.684639,102.305031 
	C74.155647,101.899216 74.626656,101.493408 75.563362,100.888672 
	C75.557922,100.659676 75.552483,100.430679 75.547035,100.201683 
	C75.283234,100.389450 75.019424,100.577225 74.275703,100.964355 
M64.902702,112.830353 
	C64.619667,113.591232 64.336632,114.352104 64.053596,115.112984 
	C64.248154,115.211449 64.442703,115.309921 64.637260,115.408386 
	C65.185966,114.691170 65.734665,113.973953 66.731003,112.925194 
	C67.000404,112.442139 67.269806,111.959084 68.008469,111.039925 
	C68.320183,110.420555 68.631889,109.801193 68.943604,109.181824 
	C68.734993,109.051178 68.526382,108.920532 68.317772,108.789894 
	C67.784760,109.440514 67.251755,110.091141 66.266380,111.022957 
	C65.974159,111.461662 65.681938,111.900375 64.902702,112.830353 
M364.484100,454.936157 
	C363.885681,455.149597 363.287262,455.363037 362.688812,455.576477 
	C363.051086,455.967163 363.413361,456.357849 363.775635,456.748535 
	C364.525909,456.115875 365.276184,455.483215 365.840302,454.599976 
	C365.555450,454.394592 365.287781,454.426727 364.484100,454.936157 
M96.672966,78.943115 
	C97.417435,78.452690 98.161903,77.962265 98.906364,77.471840 
	C98.522057,77.091728 98.137741,76.711609 97.753426,76.331497 
	C97.183022,77.235336 96.612625,78.139175 95.549561,78.973961 
	C95.269531,79.111145 94.989502,79.248329 94.709480,79.385506 
	C94.788490,79.519936 94.867508,79.654373 94.946526,79.788818 
	C95.292000,79.515923 95.637482,79.243034 96.672966,78.943115 
M58.769917,124.810661 
	C60.628334,121.955193 62.486748,119.099724 64.345169,116.244255 
	C63.866764,115.951767 63.388363,115.659271 62.909962,115.366783 
	C61.083035,118.396500 59.256107,121.426208 57.004116,124.882301 
	C56.489365,125.820541 55.974613,126.758781 55.459866,127.697021 
	C55.737240,127.839836 56.014618,127.982658 56.291996,128.125473 
	C56.937080,127.155327 57.582169,126.185188 58.769917,124.810661 
M248.539368,478.925873 
	C245.240158,478.925873 241.940964,478.925873 238.641754,478.925873 
	C238.650681,479.300232 238.659607,479.674591 238.668533,480.048950 
	C246.556702,480.048950 254.444885,480.048950 262.333069,480.048950 
	C262.330475,479.673401 262.327881,479.297882 262.325256,478.922333 
	C258.056305,478.922333 253.787369,478.922333 248.539368,478.925873 
M290.588959,481.056854 
	C287.982330,481.521118 285.375702,481.985382 282.769073,482.449677 
	C282.858490,482.961426 282.947876,483.473175 283.037262,483.984924 
	C289.660889,482.958527 296.284515,481.932129 302.908112,480.905731 
	C302.830872,480.317627 302.753601,479.729523 302.676331,479.141449 
	C298.928040,479.753448 295.179749,480.365448 290.588959,481.056854 
M235.815933,18.332224 
	C235.714203,18.614672 235.576874,18.891066 235.527344,19.182383 
	C235.505875,19.308599 235.664948,19.590561 235.742661,19.590796 
	C242.104538,19.610111 248.466476,19.608585 254.828400,19.608585 
	C254.828918,19.097790 254.829422,18.586996 254.829926,18.076200 
	C248.734222,18.076200 242.638535,18.076200 235.815933,18.332224 
M90.325584,84.144554 
	C91.130142,83.831413 91.934700,83.518272 92.739258,83.205132 
	C92.502762,82.850235 92.266266,82.495338 92.029770,82.140442 
	C91.471687,82.612579 90.913597,83.084724 90.325584,84.144554 
M333.818573,464.189880 
	C334.184082,464.355682 334.549591,464.521515 334.915100,464.687347 
	C334.778168,464.163513 334.641235,463.639648 334.504272,463.115814 
	C334.105988,463.357910 333.707703,463.600006 333.818573,464.189880 
M335.254791,466.809235 
	C335.252350,466.598206 335.261566,466.385345 335.229034,466.179047 
	C335.225830,466.158661 334.967133,466.178528 334.826996,466.179718 
	C334.829071,466.391144 334.831146,466.602600 335.254791,466.809235 
z"/>
<path fill="#EC5C39" opacity="1.000000" stroke="none" 
	d="
M463.818756,139.370056 
	C465.111328,139.119598 466.506653,139.233093 467.950348,139.050720 
	C471.320740,146.583786 474.642822,154.412674 477.685120,162.742233 
	C476.991974,163.487183 476.578613,163.731476 476.165222,163.975769 
	C472.083984,155.895187 468.002777,147.814606 463.818756,139.370056 
z"/>
<path fill="#EF7A5D" opacity="1.000000" stroke="none" 
	d="
M407.923401,85.272522 
	C410.344269,86.050217 413.622589,86.473557 415.412964,88.331047 
	C420.864655,93.987083 425.742279,100.196388 430.927063,106.805664 
	C430.954620,108.289436 430.898438,109.157875 430.842285,110.026306 
	C423.261658,101.875526 415.681061,93.724747 407.923401,85.272522 
z"/>
<path fill="#F3A491" opacity="1.000000" stroke="none" 
	d="
M209.171127,19.197872 
	C210.470261,20.063486 211.431793,20.923075 212.989166,22.315332 
	C205.106812,23.992994 197.843994,25.538799 190.327423,26.743103 
	C191.630875,25.277288 193.143707,24.083828 194.757568,23.047787 
	C196.429764,21.974302 198.199905,21.053415 199.927216,20.065788 
	C201.110016,20.110189 202.292831,20.154593 203.766052,20.055698 
	C205.648819,19.672216 207.241180,19.432032 209.171127,19.197872 
z"/>
<path fill="#ED5835" opacity="1.000000" stroke="none" 
	d="
M476.213226,164.337921 
	C476.578613,163.731476 476.991974,163.487183 477.619293,163.133377 
	C483.072723,172.114349 487.489288,188.630539 485.367767,191.798386 
	C482.306427,182.688736 479.283844,173.694412 476.213226,164.337921 
z"/>
<path fill="#ED5530" opacity="1.000000" stroke="none" 
	d="
M473.964935,193.515503 
	C474.366699,192.769318 474.809113,192.443558 475.536072,192.090347 
	C478.644836,199.759659 479.869110,207.668243 480.183838,215.697235 
	C479.505859,215.809891 478.827850,215.922546 478.149872,216.035202 
	C476.768463,208.668777 475.387024,201.302368 473.964935,193.515503 
z"/>
<path fill="#EE5D3A" opacity="1.000000" stroke="none" 
	d="
M484.935333,283.583557 
	C484.387177,280.837799 483.929749,277.672272 483.154816,274.245056 
	C482.953430,268.376373 483.069550,262.769348 483.185669,257.162292 
	C483.799133,257.206787 484.412598,257.251282 485.026062,257.295776 
	C485.026062,265.918427 485.026062,274.541107 484.935333,283.583557 
z"/>
<path fill="#ED5732" opacity="1.000000" stroke="none" 
	d="
M401.024292,430.910461 
	C397.157135,434.344971 393.381714,437.895721 389.328156,441.094025 
	C388.689117,441.598206 386.792023,440.507965 385.143127,440.069397 
	C389.944733,436.086731 395.079895,432.189667 400.584839,428.507019 
	C400.977875,429.451141 401.001068,430.180817 401.024292,430.910461 
z"/>
<path fill="#F0947E" opacity="1.000000" stroke="none" 
	d="
M430.964111,110.359634 
	C430.898438,109.157875 430.954620,108.289436 431.019379,107.122787 
	C434.743591,112.300514 438.459198,117.776466 442.068695,123.541443 
	C441.108459,123.518974 439.899078,123.464439 439.457825,122.854340 
	C436.574402,118.867638 433.857361,114.760635 430.964111,110.359634 
z"/>
<path fill="#F7B7A8" opacity="1.000000" stroke="none" 
	d="
M348.113068,48.421524 
	C349.905853,47.890350 352.136963,46.987209 353.768616,47.622837 
	C357.498108,49.075714 360.934387,51.281269 364.521179,53.492386 
	C359.128113,52.118553 353.703644,50.433434 348.113068,48.421524 
z"/>
<path fill="#FCE9E4" opacity="1.000000" stroke="none" 
	d="
M401.372498,430.951477 
	C401.001068,430.180817 400.977875,429.451141 400.888519,428.362915 
	C403.970337,425.065674 407.118286,422.127075 410.908813,419.340820 
	C411.909363,419.943939 412.267334,420.394653 412.625305,420.845367 
	C408.990448,424.227753 405.355560,427.610138 401.372498,430.951477 
z"/>
<path fill="#FDF0EC" opacity="1.000000" stroke="none" 
	d="
M375.389465,318.947937 
	C374.665222,317.828522 374.006378,316.477020 374.046936,315.146851 
	C374.347321,305.293671 374.786865,295.444733 375.508850,285.330872 
	C375.816254,296.286713 375.797485,307.506226 375.389465,318.947937 
z"/>
<path fill="#F0846A" opacity="1.000000" stroke="none" 
	d="
M275.692566,126.568726 
	C274.730286,127.213470 273.510284,127.942513 272.293518,127.937119 
	C260.495636,127.884834 248.698288,127.709396 236.569519,127.375809 
	C247.703964,127.116470 259.169952,127.075394 270.635071,126.955727 
	C272.237549,126.939003 273.835999,126.536278 275.692566,126.568726 
z"/>
<path fill="#EF7A5D" opacity="1.000000" stroke="none" 
	d="
M274.603882,384.872192 
	C275.044067,384.231445 275.887909,383.143219 276.739319,383.137268 
	C285.641418,383.075195 294.544830,383.176025 303.447266,383.285736 
	C303.835205,383.290497 304.216705,383.817657 304.701904,384.458740 
	C297.603210,384.552460 290.405243,384.181519 283.203552,384.080505 
	C280.477173,384.042236 277.742126,384.626587 274.603882,384.872192 
z"/>
<path fill="#F3A491" opacity="1.000000" stroke="none" 
	d="
M376.916016,221.578888 
	C376.544128,220.653900 376.008118,219.261292 376.007721,217.868561 
	C376.004852,207.405884 376.107544,196.943146 376.508484,186.204834 
	C376.893188,197.656555 376.946533,209.383881 376.916016,221.578888 
z"/>
<path fill="#F3A491" opacity="1.000000" stroke="none" 
	d="
M231.889771,126.562790 
	C221.869659,126.906471 211.632751,126.865379 201.113159,126.487030 
	C211.111328,126.159187 221.392151,126.168594 231.889771,126.562790 
z"/>
<path fill="#FCE2DC" opacity="1.000000" stroke="none" 
	d="
M267.718079,4.569813 
	C259.180573,5.043359 250.525085,5.096338 241.412903,5.020573 
	C244.090897,4.596023 247.222092,4.103156 250.361053,4.047269 
	C256.104980,3.945000 261.853485,4.100968 267.718079,4.569813 
z"/>
<path fill="#FBDAD2" opacity="1.000000" stroke="none" 
	d="
M236.603500,13.888302 
	C244.555817,13.625593 252.964630,13.417072 261.647034,13.522293 
	C253.633743,13.871521 245.346878,13.907005 236.603500,13.888302 
z"/>
<path fill="#F3A491" opacity="1.000000" stroke="none" 
	d="
M353.744202,461.612122 
	C352.728302,462.155731 351.712402,462.699280 350.244324,462.871155 
	C349.496368,462.265625 349.200684,462.031830 348.770081,461.553223 
	C347.806091,460.580170 346.976990,459.851929 346.147888,459.123688 
	C346.597717,459.076996 347.047516,459.030304 348.035034,458.831940 
	C348.870636,458.535156 349.066711,458.303711 349.160889,457.985931 
	C349.624695,457.987671 350.088531,457.989380 350.974701,457.729187 
	C351.590027,457.309998 351.695251,457.106995 351.712677,456.858185 
	C351.712677,456.858185 351.839905,456.721680 351.872131,456.633301 
	C352.072815,456.670746 352.241272,456.796600 352.746765,457.484070 
	C353.303925,459.234497 353.524048,460.423309 353.744202,461.612122 
z"/>
<path fill="#F0846A" opacity="1.000000" stroke="none" 
	d="
M354.062286,461.552185 
	C353.524048,460.423309 353.303925,459.234497 353.040100,457.600159 
	C354.334564,457.128021 355.672760,457.101379 357.646240,457.330383 
	C359.194183,457.722473 360.106781,457.858856 361.019409,457.995270 
	C358.806427,459.160919 356.593414,460.326569 354.062286,461.552185 
z"/>
<path fill="#F3A491" opacity="1.000000" stroke="none" 
	d="
M371.005890,442.714325 
	C371.489960,442.176849 371.974030,441.639343 372.919006,441.356995 
	C374.515625,441.338348 375.651276,441.064606 376.786957,440.790894 
	C373.459259,442.855133 370.131531,444.919403 366.402283,446.657776 
	C365.992706,446.152588 365.984650,445.973267 365.976593,445.794006 
	C366.377228,445.508575 366.777863,445.223175 367.816895,444.940247 
	C369.305511,444.199951 370.155701,443.457153 371.005890,442.714325 
z"/>
<path fill="#EB4C26" opacity="1.000000" stroke="none" 
	d="
M370.573212,448.940094 
	C371.019592,450.153534 371.108154,451.406921 371.178467,452.401855 
	C368.369080,452.717987 365.876495,452.998444 363.166229,453.085144 
	C365.370850,451.587616 367.793121,450.283844 370.573212,448.940094 
z"/>
<path fill="#F0846A" opacity="1.000000" stroke="none" 
	d="
M383.928619,432.924500 
	C386.523041,431.055847 389.117462,429.187164 391.782410,427.906006 
	C391.919067,428.688477 391.985168,428.883423 392.051300,429.078369 
	C392.051300,429.078369 392.003845,429.017548 391.712433,428.966431 
	C390.947113,429.305420 390.473206,429.695496 389.999268,430.085571 
	C389.999268,430.085541 390.007721,430.007568 389.747040,430.044434 
	C389.333557,430.415741 389.180786,430.750153 389.027985,431.084564 
	C389.027985,431.084564 389.015930,431.015472 388.742767,431.033691 
	C388.322510,431.395691 388.175415,431.739410 388.028320,432.083130 
	C388.028290,432.083130 388.010986,432.014435 387.713135,431.961487 
	C386.944519,432.301331 386.473724,432.694122 386.002960,433.086914 
	C386.002960,433.086914 386.011475,433.015137 385.746399,433.002563 
	C385.098022,433.109131 384.714691,433.228302 384.230469,433.241943 
	C384.129547,433.136444 383.928619,432.924500 383.928619,432.924500 
z"/>
<path fill="#FDF0EC" opacity="1.000000" stroke="none" 
	d="
M412.850128,420.754120 
	C412.267334,420.394653 411.909363,419.943939 411.220520,419.223206 
	C412.417511,417.954224 413.945404,416.955292 415.760468,415.710327 
	C415.927490,416.041077 415.807281,416.617798 415.228760,417.690765 
	C414.529205,418.643677 414.287964,419.100372 414.046753,419.557068 
	C413.722839,419.925659 413.398895,420.294281 412.850128,420.754120 
z"/>
<path fill="#EB4C26" opacity="1.000000" stroke="none" 
	d="
M361.002075,457.998444 
	C360.106781,457.858856 359.194183,457.722473 358.049255,457.323425 
	C358.973541,456.023193 360.130127,454.985626 361.628052,453.901306 
	C361.674255,454.654327 361.379150,455.454071 360.998749,456.858215 
	C360.940430,457.653839 360.967407,457.845123 360.994415,458.036438 
	C360.994415,458.036438 360.984711,458.001617 361.002075,457.998444 
z"/>
<path fill="#EB4C26" opacity="1.000000" stroke="none" 
	d="
M375.073669,447.146942 
	C375.073669,447.146942 375.037415,447.554230 375.018616,448.098572 
	C374.999268,449.095978 374.998718,449.549103 374.998199,450.002197 
	C373.835175,449.685272 372.672150,449.368347 371.213562,448.987885 
	C371.712250,448.352661 372.506470,447.780945 373.885834,447.125732 
	C374.671844,447.077118 374.872772,447.112030 375.073669,447.146942 
z"/>
<path fill="#FBDCD4" opacity="1.000000" stroke="none" 
	d="
M376.987183,440.511475 
	C375.651276,441.064606 374.515625,441.338348 373.197601,441.382019 
	C374.661377,440.102753 376.307495,439.053528 378.230408,437.843933 
	C378.507263,437.683533 378.467010,437.629303 378.467010,437.629303 
	C378.040497,438.496887 377.613953,439.364471 376.987183,440.511475 
z"/>
<path fill="#F9C6BA" opacity="1.000000" stroke="none" 
	d="
M365.627075,445.883423 
	C365.984650,445.973267 365.992706,446.152588 366.022919,446.600189 
	C364.547272,447.601929 363.049469,448.335327 361.248169,449.285828 
	C360.944672,449.502930 360.914398,449.083679 360.703735,449.067871 
	C362.087952,448.025696 363.682770,446.999268 365.627075,445.883423 
z"/>
<path fill="#F18064" opacity="1.000000" stroke="none" 
	d="
M381.024139,435.744812 
	C381.770966,434.834320 382.517761,433.923859 383.596619,432.968933 
	C383.928619,432.924500 384.129547,433.136444 384.035767,433.470154 
	C383.694275,434.299988 383.446533,434.796143 383.198792,435.292267 
	C383.198792,435.292267 383.101654,435.206726 382.857605,435.174194 
	C382.414154,435.458130 382.214783,435.774628 382.015442,436.091125 
	C382.015442,436.091125 382.010284,436.019318 381.789520,435.925262 
	C381.387207,435.802399 381.205688,435.773590 381.024139,435.744812 
z"/>
<path fill="#FBDAD2" opacity="1.000000" stroke="none" 
	d="
M370.684448,442.843262 
	C370.155701,443.457153 369.305511,444.199951 368.092041,444.972717 
	C368.606873,444.325836 369.484924,443.649017 370.684448,442.843262 
z"/>
<path fill="#FCE2DC" opacity="1.000000" stroke="none" 
	d="
M380.749390,435.904663 
	C381.205688,435.773590 381.387207,435.802399 381.820496,435.943542 
	C381.128448,436.693085 380.184662,437.330231 378.853943,437.798340 
	C378.467010,437.629303 378.507263,437.683533 378.517090,437.682800 
	C379.176147,437.142914 379.825378,436.603729 380.749390,435.904663 
z"/>
<path fill="#FCE2DC" opacity="1.000000" stroke="none" 
	d="
M383.525024,435.419525 
	C383.446533,434.796143 383.694275,434.299988 384.136719,433.575684 
	C384.714691,433.228302 385.098022,433.109131 385.781982,433.008820 
	C385.338867,433.867371 384.595032,434.707092 383.525024,435.419525 
z"/>
<path fill="#ED5732" opacity="1.000000" stroke="none" 
	d="
M375.292480,446.996124 
	C374.872772,447.112030 374.671844,447.077118 374.167847,447.000366 
	C374.350403,446.622437 374.836029,446.286377 375.643188,445.930847 
	C375.813599,446.222687 375.662445,446.533997 375.292480,446.996124 
z"/>
<path fill="#EF7A5D" opacity="1.000000" stroke="none" 
	d="
M405.590393,82.510971 
	C406.064728,82.629807 406.497040,83.081566 406.966736,83.864777 
	C406.518890,83.745453 406.033630,83.294678 405.590393,82.510971 
z"/>
<path fill="#ED5732" opacity="1.000000" stroke="none" 
	d="
M377.973480,446.026123 
	C377.519775,446.014740 377.066071,446.003326 376.272522,445.969269 
	C376.401886,445.618011 376.871094,445.289368 377.651855,444.914307 
	C377.979004,445.053436 377.994568,445.238983 378.004089,445.713562 
	C377.998077,446.002594 377.973480,446.026123 377.973480,446.026123 
z"/>
<path fill="#FBDAD2" opacity="1.000000" stroke="none" 
	d="
M386.321564,433.052551 
	C386.473724,432.694122 386.944519,432.301331 387.745911,431.974976 
	C387.597748,432.367004 387.118958,432.692596 386.321564,433.052551 
z"/>
<path fill="#FBDAD2" opacity="1.000000" stroke="none" 
	d="
M390.318848,430.051758 
	C390.473206,429.695496 390.947113,429.305420 391.749207,428.977997 
	C391.597717,429.366425 391.118042,429.692200 390.318848,430.051758 
z"/>
<path fill="#FCE2DC" opacity="1.000000" stroke="none" 
	d="
M382.331421,436.052399 
	C382.214783,435.774628 382.414154,435.458130 382.921753,435.182495 
	C383.035797,435.486755 382.841583,435.750214 382.331421,436.052399 
z"/>
<path fill="#FBDAD2" opacity="1.000000" stroke="none" 
	d="
M388.296112,432.017639 
	C388.175415,431.739410 388.322510,431.395691 388.777405,431.039246 
	C388.911438,431.335083 388.737671,431.643616 388.296112,432.017639 
z"/>
<path fill="#FBDAD2" opacity="1.000000" stroke="none" 
	d="
M389.303162,431.026855 
	C389.180786,430.750153 389.333557,430.415741 389.785889,430.049683 
	C389.916412,430.335083 389.747345,430.652100 389.303162,431.026855 
z"/>
<path fill="#FBDAD2" opacity="1.000000" stroke="none" 
	d="
M392.322113,429.000854 
	C391.985168,428.883423 391.919067,428.688477 391.951965,428.201111 
	C392.231598,428.246918 392.412262,428.585114 392.322113,429.000854 
z"/>
<path fill="#EF7A5D" opacity="1.000000" stroke="none" 
	d="
M405.050049,82.295532 
	C405.212708,82.139900 405.438507,82.139778 405.555725,82.312302 
	C405.447144,82.484947 405.113190,82.451050 405.050049,82.295532 
z"/>
<path fill="#000000" opacity="1.000000" stroke="none" 
	d="
M232.764206,356.199646 
	C228.926529,355.244843 225.162247,354.191681 223.980835,348.829895 
	C223.977951,315.004517 224.011078,282.006775 223.992661,249.009003 
	C223.980377,227.013947 223.894653,205.018936 223.729767,182.598846 
	C206.456558,182.170914 189.295395,182.167999 172.134247,182.165100 
	C168.167206,181.518967 167.949921,178.286957 167.908585,175.399551 
	C167.785019,166.770020 167.762741,158.127594 168.167099,149.512070 
	C168.243698,147.879990 170.460114,146.348343 172.317474,144.386108 
	C221.266937,144.001923 269.588104,143.992630 317.909241,144.036224 
	C319.835968,144.037964 321.762207,144.541962 323.688690,144.811951 
	C325.457825,148.195160 328.518188,151.502914 328.721313,154.977661 
	C329.116699,161.742126 327.708435,168.592361 327.443817,175.422455 
	C327.285339,179.512924 324.828400,181.267090 321.107788,182.429260 
	C304.826843,182.078598 289.127319,182.024902 273.427948,182.045471 
	C272.671295,182.046463 271.915497,182.701523 271.089020,183.512634 
	C271.012024,236.494522 271.040497,289.015839 270.919495,341.536804 
	C270.911407,345.039337 269.768890,348.539215 269.154022,352.040344 
	C267.135254,353.345825 265.116486,354.651306 262.321869,356.030243 
	C251.952103,356.135681 242.358154,356.167664 232.764206,356.199646 
z"/>
<path fill="#EC5C39" opacity="1.000000" stroke="none" 
	d="
M269.517395,351.946350 
	C269.768890,348.539215 270.911407,345.039337 270.919495,341.536804 
	C271.040497,289.015839 271.012024,236.494522 271.315460,183.531921 
	C271.612183,183.090530 272.046021,183.227524 272.046021,183.227524 
	C272.029480,236.846542 272.042389,290.465637 271.906647,344.084381 
	C271.900085,346.675415 270.585968,349.263092 269.517395,351.946350 
z"/>
<path fill="#EF7151" opacity="1.000000" stroke="none" 
	d="
M223.841812,183.023895 
	C223.894653,205.018936 223.980377,227.013947 223.992661,249.009003 
	C224.011078,282.006775 223.977951,315.004517 223.899902,348.460419 
	C223.555893,346.828674 223.038986,344.739044 223.036636,342.648865 
	C222.977356,289.806519 222.972122,236.964157 223.164307,183.596161 
	C223.371231,183.070526 223.841812,183.023895 223.841812,183.023895 
z"/>
<path fill="#F6AE9D" opacity="1.000000" stroke="none" 
	d="
M323.609467,144.444794 
	C321.762207,144.541962 319.835968,144.037964 317.909241,144.036224 
	C269.588104,143.992630 221.266937,144.001923 172.483551,144.071289 
	C173.695068,143.756195 175.368378,143.037964 177.042603,143.035812 
	C224.172455,142.975494 271.302399,142.976105 318.432251,143.033554 
	C320.132019,143.035629 321.830933,143.714294 323.609467,144.444794 
z"/>
<path fill="#FBDAD2" opacity="1.000000" stroke="none" 
	d="
M223.729767,182.598846 
	C223.841812,183.023895 223.371231,183.070526 223.145569,183.141113 
	C208.176987,183.158752 193.433990,183.118866 178.691223,183.037369 
	C176.715683,183.026443 174.741302,182.805252 172.450317,182.423264 
	C189.295395,182.167999 206.456558,182.170914 223.729767,182.598846 
z"/>
<path fill="#FBDCD4" opacity="1.000000" stroke="none" 
	d="
M272.506287,183.152100 
	C272.046021,183.227524 271.612183,183.090530 271.385742,183.071259 
	C271.915497,182.701523 272.671295,182.046463 273.427948,182.045471 
	C289.127319,182.024902 304.826843,182.078598 320.760193,182.476028 
	C304.984894,182.915207 288.975739,182.995956 272.506287,183.152100 
z"/>
<path fill="#FBDAD2" opacity="1.000000" stroke="none" 
	d="
M233.049774,356.403320 
	C242.358154,356.167664 251.952103,356.135681 261.957825,356.148010 
	C252.691498,356.330566 243.013412,356.468781 233.049774,356.403320 
z"/>
<path fill="#EE5D3A" opacity="1.000000" stroke="none" 
	d="
M163.116501,35.929504 
	C155.979736,39.994801 148.863190,44.096577 141.680405,48.078865 
	C140.790253,48.572384 139.547928,48.430641 138.325226,48.063690 
	C138.125000,47.360771 138.068329,47.177425 138.011673,46.994076 
	C138.126175,45.916637 138.240677,44.839199 138.400436,43.335957 
	C142.468658,46.053181 144.959305,43.196251 147.963379,40.510754 
	C148.514099,39.659195 148.750488,39.299557 148.986893,38.939919 
	C148.986893,38.939919 149.000244,38.997749 149.301147,39.038101 
	C150.067017,38.698799 150.531952,38.319149 150.996887,37.939499 
	C150.996887,37.939495 150.999191,37.998852 151.304337,38.050842 
	C152.067047,37.715118 152.524612,37.327408 152.982162,36.939690 
	C152.982162,36.939690 152.998642,36.997936 153.350555,37.062481 
	C155.800674,36.246685 157.842209,35.135185 160.025040,34.600105 
	C160.894653,34.386940 162.076691,35.448341 163.116501,35.929504 
z"/>
<path fill="#ED5835" opacity="1.000000" stroke="none" 
	d="
M165.934525,31.250145 
	C170.798599,29.028631 175.657883,26.796280 180.550079,24.638523 
	C180.695129,24.574547 181.185928,25.294502 181.683182,26.177006 
	C178.197876,28.366409 174.544937,30.027763 170.787216,31.587837 
	C170.364655,31.393833 170.154190,31.520439 169.753525,32.034615 
	C168.282181,31.885286 167.108353,31.567715 165.934525,31.250145 
z"/>
<path fill="#000000" opacity="1.000000" stroke="none" 
	d="
M199.522141,20.034550 
	C198.199905,21.053415 196.429764,21.974302 194.757568,23.047787 
	C193.143707,24.083828 191.630875,25.277288 189.900284,26.727566 
	C188.591949,27.346659 187.457016,27.639784 185.649567,28.004131 
	C184.295990,27.289963 183.614929,26.504566 182.933868,25.719170 
	C188.328262,23.813881 193.722672,21.908594 199.522141,20.034550 
z"/>
<path fill="#F8C0B2" opacity="1.000000" stroke="none" 
	d="
M182.698700,25.783838 
	C183.614929,26.504566 184.295990,27.289963 185.302475,28.132351 
	C178.982269,30.701208 172.336639,33.213074 165.343414,35.496552 
	C164.702881,34.271324 164.409943,33.274483 164.117004,32.277649 
	C164.582626,31.935974 165.048233,31.594299 165.724182,31.251383 
	C167.108353,31.567715 168.282181,31.885286 169.971237,32.025818 
	C170.486465,31.848782 170.891983,31.689116 170.891983,31.689117 
	C174.544937,30.027763 178.197876,28.366409 181.925323,26.352461 
	C181.999817,25.999866 182.463531,25.848507 182.698700,25.783838 
z"/>
<path fill="#F8C0B2" opacity="1.000000" stroke="none" 
	d="
M249.028900,478.924103 
	C253.787369,478.922333 258.056305,478.922333 262.325256,478.922333 
	C262.327881,479.297882 262.330475,479.673401 262.333069,480.048950 
	C254.444885,480.048950 246.556702,480.048950 238.668533,480.048950 
	C238.659607,479.674591 238.650681,479.300232 238.641754,478.925873 
	C241.940964,478.925873 245.240158,478.925873 249.028900,478.924103 
z"/>
<path fill="#F6AE9D" opacity="1.000000" stroke="none" 
	d="
M291.010193,481.017151 
	C295.179749,480.365448 298.928040,479.753448 302.676331,479.141449 
	C302.753601,479.729523 302.830872,480.317627 302.908112,480.905731 
	C296.284515,481.932129 289.660889,482.958527 283.037262,483.984924 
	C282.947876,483.473175 282.858490,482.961426 282.769073,482.449677 
	C285.375702,481.985382 287.982330,481.521118 291.010193,481.017151 
z"/>
<path fill="#F18064" opacity="1.000000" stroke="none" 
	d="
M236.179382,18.204212 
	C242.638535,18.076200 248.734222,18.076200 254.829926,18.076200 
	C254.829422,18.586996 254.828918,19.097790 254.828400,19.608585 
	C248.466476,19.608585 242.104538,19.610111 235.742661,19.590796 
	C235.664948,19.590561 235.505875,19.308599 235.527344,19.182383 
	C235.576874,18.891066 235.714203,18.614672 236.179382,18.204212 
z"/>
<path fill="#ED5835" opacity="1.000000" stroke="none" 
	d="
M348.904968,461.798004 
	C349.200684,462.031830 349.496368,462.265625 349.902161,462.764954 
	C350.012207,463.030487 349.998901,462.988281 349.736298,463.033569 
	C348.994049,463.353058 348.514404,463.627258 348.034790,463.901489 
	C346.059296,466.846466 343.336395,467.850311 339.828278,466.532837 
	C339.714844,465.868378 339.684082,465.700470 339.915283,465.408264 
	C340.465363,464.851776 340.753479,464.419586 341.012390,463.980103 
	C340.983215,463.972839 340.966919,464.030762 341.317963,464.120392 
	C342.459564,463.810486 343.250122,463.410950 344.020813,463.002197 
	C344.000977,462.993011 343.994690,463.035431 344.357239,463.125702 
	C346.114868,462.743317 347.509918,462.270660 348.904968,461.798004 
z"/>
<path fill="#F9C6BA" opacity="1.000000" stroke="none" 
	d="
M163.727356,32.177925 
	C164.409943,33.274483 164.702881,34.271324 164.995010,35.586372 
	C164.578873,35.933636 164.163544,35.962692 163.432358,35.960629 
	C162.076691,35.448341 160.894653,34.386940 160.025040,34.600105 
	C157.842209,35.135185 155.800674,36.246685 153.326874,37.043625 
	C156.413406,35.332890 159.875549,33.705551 163.727356,32.177925 
z"/>
<path fill="#F7B7A8" opacity="1.000000" stroke="none" 
	d="
M57.429184,124.455917 
	C59.256107,121.426208 61.083035,118.396500 62.909962,115.366783 
	C63.388363,115.659271 63.866764,115.951767 64.345169,116.244255 
	C62.486748,119.099724 60.628334,121.955193 58.304897,124.816940 
	C57.702976,124.700783 57.566078,124.578346 57.429184,124.455917 
z"/>
<path fill="#F7B7A8" opacity="1.000000" stroke="none" 
	d="
M348.770081,461.553223 
	C347.509918,462.270660 346.114868,462.743317 344.448792,462.868652 
	C344.126801,461.936554 344.075836,461.351746 344.024841,460.766937 
	C344.573975,460.131165 345.123108,459.495422 345.910065,458.991699 
	C346.976990,459.851929 347.806091,460.580170 348.770081,461.553223 
z"/>
<path fill="#EF7151" opacity="1.000000" stroke="none" 
	d="
M343.724884,460.894989 
	C344.075836,461.351746 344.126801,461.936554 344.086243,462.778381 
	C343.994690,463.035431 344.000977,462.993011 343.678650,462.979309 
	C342.559875,463.320679 341.763397,463.675720 340.966919,464.030762 
	C340.966919,464.030762 340.983215,463.972839 340.667542,464.034454 
	C339.732422,464.408173 339.112976,464.720276 338.283844,465.082489 
	C337.769928,465.143646 337.526428,465.270813 337.343658,465.514099 
	C337.301453,465.201904 337.259277,464.889709 337.318176,464.031677 
	C337.563629,463.349274 337.670471,463.187744 337.739746,463.001282 
	C338.584290,462.639282 339.428833,462.277252 340.868591,461.951660 
	C341.908264,461.725525 342.352692,461.462982 342.797119,461.200439 
	C343.006348,461.141327 343.215607,461.082184 343.724884,460.894989 
z"/>
<path fill="#F38E75" opacity="1.000000" stroke="none" 
	d="
M96.042221,79.043015 
	C96.612625,78.139175 97.183022,77.235336 97.753426,76.331497 
	C98.137741,76.711609 98.522057,77.091728 98.906364,77.471840 
	C98.161903,77.962265 97.417435,78.452690 96.341675,78.975700 
	C96.010391,79.008286 96.042221,79.043015 96.042221,79.043015 
z"/>
<path fill="#F38E75" opacity="1.000000" stroke="none" 
	d="
M76.767891,97.788368 
	C77.547478,96.832481 78.327065,95.876587 79.525673,94.930435 
	C79.944702,94.940186 80.188919,95.174484 80.188919,95.174484 
	C79.443695,96.161835 78.698471,97.149185 77.515518,98.113098 
	C77.077782,98.089661 76.767891,97.788368 76.767891,97.788368 
z"/>
<path fill="#F38E75" opacity="1.000000" stroke="none" 
	d="
M90.340546,83.850708 
	C90.913597,83.084724 91.471687,82.612579 92.029770,82.140442 
	C92.266266,82.495338 92.502762,82.850235 92.739258,83.205132 
	C91.934700,83.518272 91.130142,83.831413 90.340546,83.850708 
z"/>
<path fill="#F9C6BA" opacity="1.000000" stroke="none" 
	d="
M148.638153,38.822826 
	C148.750488,39.299557 148.514099,39.659195 148.101379,40.178680 
	C146.863403,40.555405 145.801743,40.772282 144.740067,40.989159 
	C144.678711,40.799435 144.617355,40.609711 144.556000,40.419987 
	C145.800476,39.848568 147.044952,39.277153 148.638153,38.822826 
z"/>
<path fill="#F7B7A8" opacity="1.000000" stroke="none" 
	d="
M58.033566,125.019135 
	C57.582169,126.185188 56.937080,127.155327 56.291996,128.125473 
	C56.014618,127.982658 55.737240,127.839836 55.459866,127.697021 
	C55.974613,126.758781 56.489365,125.820541 57.216652,124.669113 
	C57.566078,124.578346 57.702976,124.700783 58.033566,125.019135 
z"/>
<path fill="#FBDAD2" opacity="1.000000" stroke="none" 
	d="
M137.709702,47.003853 
	C138.068329,47.177425 138.125000,47.360771 138.097488,47.819389 
	C137.406738,48.433067 136.800171,48.771473 136.155289,49.131241 
	C136.533432,48.491882 136.970581,47.752758 137.709702,47.003853 
z"/>
<path fill="#F9C6BA" opacity="1.000000" stroke="none" 
	d="
M342.556152,461.070374 
	C342.352692,461.462982 341.908264,461.725525 341.208679,461.868988 
	C340.783203,461.227356 340.612885,460.704803 340.442566,460.182220 
	C341.066772,460.434906 341.690948,460.687592 342.556152,461.070374 
z"/>
<path fill="#F0846A" opacity="1.000000" stroke="none" 
	d="
M366.026489,454.850586 
	C365.276184,455.483215 364.525909,456.115875 363.775635,456.748535 
	C363.413361,456.357849 363.051086,455.967163 362.688812,455.576477 
	C363.287262,455.363037 363.885681,455.149597 365.007263,454.857819 
	C365.695801,454.803192 365.861145,454.826874 366.026489,454.850586 
z"/>
<path fill="#F7B7A8" opacity="1.000000" stroke="none" 
	d="
M66.718742,110.741760 
	C67.251755,110.091141 67.784760,109.440514 68.317772,108.789894 
	C68.526382,108.920532 68.734993,109.051178 68.943604,109.181824 
	C68.631889,109.801193 68.320183,110.420555 67.569077,111.072968 
	C66.992706,110.984589 66.855728,110.863174 66.718742,110.741760 
z"/>
<path fill="#F7B7A8" opacity="1.000000" stroke="none" 
	d="
M66.283363,113.256729 
	C65.734665,113.973953 65.185966,114.691170 64.637260,115.408386 
	C64.442703,115.309921 64.248154,115.211449 64.053596,115.112984 
	C64.336632,114.352104 64.619667,113.591232 65.361656,112.821884 
	C65.974861,112.961197 66.129112,113.108963 66.283363,113.256729 
z"/>
<path fill="#F38E75" opacity="1.000000" stroke="none" 
	d="
M75.097664,101.087601 
	C74.626656,101.493408 74.155647,101.899216 73.684647,102.305031 
	C73.881660,101.858139 74.078682,101.411247 74.601227,100.945274 
	C74.926750,100.926193 75.097664,101.087601 75.097664,101.087601 
z"/>
<path fill="#F9C6BA" opacity="1.000000" stroke="none" 
	d="
M333.563995,464.015991 
	C333.707703,463.600006 334.105988,463.357910 334.504272,463.115814 
	C334.641235,463.639648 334.778168,464.163513 334.915100,464.687347 
	C334.549591,464.521515 334.184082,464.355682 333.563995,464.015991 
z"/>
<path fill="#ED5732" opacity="1.000000" stroke="none" 
	d="
M375.188416,450.114685 
	C374.998718,449.549103 374.999268,449.095978 375.001709,448.302307 
	C375.128662,448.716858 375.253632,449.471985 375.188416,450.114685 
z"/>
<path fill="#ED5732" opacity="1.000000" stroke="none" 
	d="
M378.011841,445.992737 
	C378.338837,446.578979 378.652130,447.175018 378.965393,447.771088 
	C378.740662,447.856262 378.515900,447.941406 378.291138,448.026581 
	C378.190765,447.548065 378.090363,447.069519 377.981720,446.308563 
	C377.973480,446.026123 377.998077,446.002594 378.011841,445.992737 
z"/>
<path fill="#F9C6BA" opacity="1.000000" stroke="none" 
	d="
M152.647324,36.792610 
	C152.524612,37.327408 152.067047,37.715118 151.277924,38.037277 
	C151.401733,37.529655 151.857117,37.087589 152.647324,36.792610 
z"/>
<path fill="#F7B7A8" opacity="1.000000" stroke="none" 
	d="
M65.605164,112.576256 
	C65.681938,111.900375 65.974159,111.461662 66.492561,110.882355 
	C66.855728,110.863174 66.992706,110.984589 67.334457,111.291016 
	C67.269806,111.959084 67.000404,112.442139 66.507187,113.090958 
	C66.129112,113.108963 65.974861,112.961197 65.605164,112.576256 
z"/>
<path fill="#F38E75" opacity="1.000000" stroke="none" 
	d="
M95.996674,78.989212 
	C95.637482,79.243034 95.292000,79.515923 94.946526,79.788818 
	C94.867508,79.654373 94.788490,79.519936 94.709473,79.385513 
	C94.989502,79.248329 95.269531,79.111145 95.795891,79.008484 
	C96.042221,79.043015 96.010391,79.008286 95.996674,78.989212 
z"/>
<path fill="#F9C6BA" opacity="1.000000" stroke="none" 
	d="
M150.659012,37.804802 
	C150.531952,38.319149 150.067017,38.698799 149.272766,39.029453 
	C149.402679,38.543671 149.861908,38.106884 150.659012,37.804802 
z"/>
<path fill="#F3A491" opacity="1.000000" stroke="none" 
	d="
M348.344818,463.896484 
	C348.514404,463.627258 348.994049,463.353058 349.758789,463.035156 
	C349.580902,463.291504 349.117859,463.591492 348.344818,463.896484 
z"/>
<path fill="#FBDAD2" opacity="1.000000" stroke="none" 
	d="
M349.005371,457.694550 
	C349.066711,458.303711 348.870636,458.535156 348.339966,458.682495 
	C348.354736,458.257538 348.602264,457.830353 349.005371,457.694550 
z"/>
<path fill="#EF7151" opacity="1.000000" stroke="none" 
	d="
M335.044006,466.811646 
	C334.831146,466.602600 334.829071,466.391144 334.826996,466.179718 
	C334.967133,466.178528 335.225830,466.158661 335.229034,466.179047 
	C335.261566,466.385345 335.252350,466.598206 335.044006,466.811646 
z"/>
<path fill="#FCE9E4" opacity="1.000000" stroke="none" 
	d="
M414.311890,419.441467 
	C414.287964,419.100372 414.529205,418.643677 415.014160,418.077759 
	C415.030975,418.420990 414.803986,418.873444 414.311890,419.441467 
z"/>
<path fill="#ED5835" opacity="1.000000" stroke="none" 
	d="
M337.392670,465.711823 
	C337.526428,465.270813 337.769928,465.143646 338.519623,465.271057 
	C339.155975,465.468842 339.346893,465.528168 339.332153,465.710236 
	C339.126465,465.832977 338.710999,466.071350 338.710999,466.071350 
	C338.287903,466.017395 337.864777,465.963470 337.392670,465.711823 
z"/>
<path fill="#F7B7A8" opacity="1.000000" stroke="none" 
	d="
M69.790031,106.804222 
	C70.098656,106.595634 70.407288,106.387047 70.715912,106.178467 
	C70.748680,106.450432 70.781441,106.722404 70.455612,107.047699 
	C70.097008,107.101028 69.790031,106.804222 69.790031,106.804222 
z"/>
<path fill="#F0846A" opacity="1.000000" stroke="none" 
	d="
M361.219910,457.945892 
	C360.967407,457.845123 360.940430,457.653839 360.949463,457.174622 
	C361.138794,457.209564 361.292084,457.532440 361.219910,457.945892 
z"/>
<path fill="#F38E75" opacity="1.000000" stroke="none" 
	d="
M83.125397,92.112320 
	C83.028465,92.442451 82.841835,92.710014 82.240837,92.918282 
	C81.916168,92.921547 81.713699,92.716751 81.713699,92.716751 
	C81.795654,92.384811 81.975113,92.118599 82.582535,91.915657 
	C82.913002,91.913216 83.125397,92.112320 83.125397,92.112320 
z"/>
<path fill="#F38E75" opacity="1.000000" stroke="none" 
	d="
M74.841187,100.845596 
	C75.019424,100.577225 75.283234,100.389450 75.547035,100.201683 
	C75.552483,100.430679 75.557922,100.659676 75.330513,100.988136 
	C75.097664,101.087601 74.926750,100.926193 74.841187,100.845596 
z"/>
<path fill="#ED5835" opacity="1.000000" stroke="none" 
	d="
M337.587250,463.050751 
	C337.670471,463.187744 337.563629,463.349274 337.304047,463.559387 
	C337.147766,463.398651 337.229736,463.221069 337.587250,463.050751 
z"/>
<path fill="#EF7151" opacity="1.000000" stroke="none" 
	d="
M339.653320,465.532593 
	C339.684082,465.700470 339.714844,465.868378 339.789490,466.279785 
	C339.570374,466.473511 339.322388,466.382690 338.900208,466.161102 
	C338.710999,466.071350 339.126465,465.832977 339.359009,465.696442 
	C339.591553,465.559906 339.653320,465.532593 339.653320,465.532593 
z"/>
<path fill="#F38E75" opacity="1.000000" stroke="none" 
	d="
M77.228134,98.244881 
	C77.121170,98.573708 76.863853,98.747307 76.606529,98.920914 
	C76.546104,98.652985 76.485680,98.385048 76.596573,97.952744 
	C76.767891,97.788368 77.077782,98.089661 77.228134,98.244881 
z"/>
<path fill="#F38E75" opacity="1.000000" stroke="none" 
	d="
M81.112923,94.101181 
	C81.029312,94.427513 80.858154,94.698555 80.394180,95.044388 
	C80.188919,95.174484 79.944702,94.940186 79.820793,94.819901 
	C79.856873,94.411980 80.066086,94.166252 80.632721,93.948944 
	C80.940918,93.935478 81.112923,94.101181 81.112923,94.101181 
z"/>
<path fill="#F7B7A8" opacity="1.000000" stroke="none" 
	d="
M70.248779,107.251190 
	C70.054222,107.596519 69.707886,107.791679 69.361542,107.986832 
	C69.343224,107.705894 69.324905,107.424965 69.548309,106.974121 
	C69.790031,106.804222 70.097008,107.101028 70.248779,107.251190 
z"/>
<path fill="#F38E75" opacity="1.000000" stroke="none" 
	d="
M80.856056,93.851456 
	C80.884758,93.459290 81.066643,93.198868 81.515282,92.851456 
	C81.713699,92.716751 81.916168,92.921547 82.017120,93.025505 
	C82.009125,93.444740 81.819298,93.699829 81.330750,93.997948 
	C81.112923,94.101181 80.940918,93.935478 80.856056,93.851456 
z"/>
<path fill="#F0846A" opacity="1.000000" stroke="none" 
	d="
M351.520660,456.855652 
	C351.695251,457.106995 351.590027,457.309998 351.229675,457.490234 
	C351.006256,457.234985 351.095062,457.014954 351.520660,456.855652 
z"/>
<path fill="#EB4C26" opacity="1.000000" stroke="none" 
	d="
M365.933411,454.725281 
	C365.861145,454.826874 365.695801,454.803192 365.283844,454.737915 
	C365.287781,454.426727 365.555450,454.394592 365.933411,454.725281 
z"/>
<path fill="#F38E75" opacity="1.000000" stroke="none" 
	d="
M84.085251,91.075119 
	C83.998482,91.402985 83.822746,91.672928 83.341721,91.998634 
	C83.125397,92.112320 82.913002,91.913216 82.803589,91.810638 
	C82.827866,91.405365 83.022957,91.149445 83.592361,90.924042 
	C83.905289,90.907791 84.085251,91.075119 84.085251,91.075119 
z"/>
<path fill="#F38E75" opacity="1.000000" stroke="none" 
	d="
M83.814896,90.824570 
	C83.828590,90.427910 84.002228,90.159462 84.567856,89.915878 
	C84.890282,89.895775 85.114998,90.104393 85.114998,90.104393 
	C85.003822,90.424377 84.808975,90.680786 84.307861,90.974365 
	C84.085251,91.075119 83.905289,90.907791 83.814896,90.824570 
z"/>
<path fill="#F38E75" opacity="1.000000" stroke="none" 
	d="
M84.776985,89.792480 
	C84.789490,89.386726 84.974205,89.125984 85.555870,88.903030 
	C85.893913,88.899086 86.157806,89.147301 86.157806,89.147301 
	C86.039200,89.463493 85.840508,89.716881 85.338356,90.005928 
	C85.114998,90.104393 84.890282,89.895775 84.776985,89.792480 
z"/>
<path fill="#F38E75" opacity="1.000000" stroke="none" 
	d="
M85.761444,88.775543 
	C85.766655,88.356773 85.954979,88.098457 86.545341,87.888901 
	C86.896759,87.900764 87.194016,88.184280 87.194016,88.184280 
	C87.072342,88.497093 86.873764,88.749367 86.378052,89.044197 
	C86.157806,89.147301 85.893913,88.899086 85.761444,88.775543 
z"/>
<path fill="#F38E75" opacity="1.000000" stroke="none" 
	d="
M86.748665,87.758453 
	C86.750221,87.323219 86.948326,87.067894 87.554184,86.877411 
	C87.913475,86.904671 88.219254,87.202629 88.219254,87.202629 
	C88.096886,87.514481 87.899651,87.768097 87.410782,88.073883 
	C87.194016,88.184280 86.896759,87.900764 86.748665,87.758453 
z"/>
<path fill="#F38E75" opacity="1.000000" stroke="none" 
	d="
M87.763901,86.752350 
	C87.940392,86.460114 88.266457,86.320190 88.592522,86.180267 
	C88.605522,86.417603 88.618523,86.654938 88.425385,87.047455 
	C88.219254,87.202629 87.913475,86.904671 87.763901,86.752350 
z"/>
<path fill="#EA4018" opacity="1.000000" stroke="none" 
	d="
M170.787216,31.587837 
	C170.891983,31.689116 170.486465,31.848782 170.268753,31.857578 
	C170.154190,31.520439 170.364655,31.393833 170.787216,31.587837 
z"/>
<path fill="#F7B7A8" opacity="1.000000" stroke="none" 
	d="
M339.915283,465.408264 
	C339.653320,465.532593 339.591553,465.559906 339.564697,465.573700 
	C339.346893,465.528168 339.155975,465.468842 338.729279,465.220947 
	C339.112976,464.720276 339.732422,464.408173 340.696747,464.041748 
	C340.753479,464.419586 340.465363,464.851776 339.915283,465.408264 
z"/>
<path fill="#F7B7A8" opacity="1.000000" stroke="none" 
	d="
M341.317963,464.120422 
	C341.763397,463.675720 342.559875,463.320679 343.698517,462.988525 
	C343.250122,463.410950 342.459564,463.810486 341.317963,464.120422 
z"/>
</svg>